{"glyphs":{"0":{"ha":833,"x_min":47,"x_max":786,"o":"m 417 -17 q 225 44 308 -17 q 94 217 142 104 q 47 486 47 331 q 94 756 47 643 q 225 928 142 868 q 417 989 308 989 q 608 928 525 989 q 739 756 692 868 q 786 486 786 643 q 739 217 786 331 q 608 44 692 104 q 417 -17 525 -17 m 147 486 q 172 298 147 381 q 239 161 196 215 l 525 871 q 417 900 475 900 q 277 849 338 900 q 182 706 217 799 q 147 486 147 614 m 417 71 q 557 122 496 71 q 652 266 618 172 q 686 486 686 360 q 662 674 686 592 q 594 810 638 757 l 308 100 q 417 71 358 71 z "},"1":{"ha":833,"x_min":101,"x_max":726,"o":"m 101 0 l 101 89 l 358 89 l 358 857 l 115 808 l 115 879 l 388 972 l 456 972 l 456 89 l 726 89 l 726 0 l 101 0 z "},"2":{"ha":833,"x_min":107,"x_max":739,"o":"m 107 0 l 107 75 q 376 301 263 199 q 551 499 489 404 q 613 697 613 594 q 559 846 613 792 q 415 900 506 900 q 300 871 347 900 q 229 794 253 842 q 206 688 206 746 l 108 688 q 149 848 108 781 q 258 952 189 915 q 415 989 328 989 q 634 910 556 989 q 713 699 713 831 q 674 528 713 610 q 572 372 636 447 q 427 226 507 296 q 263 89 347 156 l 739 89 l 739 0 l 107 0 z "},"3":{"ha":833,"x_min":93,"x_max":757,"o":"m 432 -17 q 263 19 339 -17 q 142 122 188 54 q 93 285 97 189 l 193 285 q 224 178 194 226 q 306 101 253 131 q 432 72 358 72 q 599 129 542 72 q 657 283 657 186 q 624 394 657 350 q 534 459 590 438 q 408 481 478 481 l 325 481 l 325 569 l 399 569 q 558 615 500 569 q 617 740 617 660 q 569 855 617 810 q 432 900 522 900 q 294 852 347 900 q 233 726 240 804 l 133 726 q 176 862 138 803 q 279 955 214 921 q 432 989 344 989 q 588 956 524 989 q 684 867 651 922 q 717 746 717 811 q 672 617 717 674 q 564 538 628 561 l 564 529 q 703 445 649 504 q 757 285 757 386 q 717 132 757 200 q 606 24 678 64 q 432 -17 533 -17 z "},"4":{"ha":833,"x_min":75,"x_max":789,"o":"m 544 0 l 544 235 l 75 235 l 75 308 l 525 972 l 640 972 l 640 324 l 789 324 l 789 235 l 640 235 l 640 0 l 544 0 m 185 324 l 549 324 l 549 856 l 185 324 z "},"5":{"ha":833,"x_min":85,"x_max":750,"o":"m 417 -17 q 248 21 318 -17 q 137 122 178 58 q 85 265 96 186 l 185 265 q 261 126 199 181 q 418 72 324 72 q 546 106 493 72 q 627 197 599 139 q 656 326 656 254 q 592 508 656 442 q 424 574 528 574 q 281 536 340 574 q 186 440 222 499 l 94 440 l 178 972 l 690 972 l 690 883 l 254 883 l 200 569 l 206 569 q 298 634 239 606 q 431 663 357 663 q 596 623 524 663 q 709 508 668 583 q 750 328 750 433 q 712 158 750 236 q 599 31 674 79 q 417 -17 525 -17 z "},"6":{"ha":833,"x_min":78,"x_max":757,"o":"m 436 -17 q 235 42 315 -17 q 117 206 156 101 q 78 446 78 310 q 122 728 78 606 q 249 919 165 850 q 450 989 332 989 q 606 953 540 989 q 708 859 671 918 q 753 726 746 800 l 660 726 q 590 853 646 806 q 450 900 535 900 q 315 853 376 900 q 214 710 253 807 q 169 461 175 613 l 175 461 q 278 574 210 526 q 447 621 347 621 q 605 579 535 621 q 716 467 675 538 q 757 308 757 397 q 717 147 757 221 q 605 28 676 72 q 436 -17 533 -17 m 429 72 q 549 103 497 72 q 628 185 600 133 q 657 303 657 238 q 628 420 657 368 q 549 502 600 472 q 429 532 497 532 q 310 502 361 532 q 229 420 258 472 q 200 301 200 368 q 229 184 200 236 q 310 102 258 132 q 429 72 361 72 z "},"7":{"ha":833,"x_min":92,"x_max":736,"o":"m 250 0 l 636 883 l 92 883 l 92 972 l 736 972 l 736 892 l 354 0 l 250 0 z "},"8":{"ha":833,"x_min":97,"x_max":736,"o":"m 417 -17 q 250 19 322 -17 q 138 119 178 56 q 97 261 97 182 q 147 419 97 354 q 263 511 197 485 l 263 517 q 161 602 199 546 q 124 731 124 658 q 160 861 124 803 q 263 954 197 919 q 417 989 329 989 q 566 954 500 989 q 671 861 632 919 q 710 731 710 803 q 672 602 710 658 q 571 517 635 546 l 571 511 q 686 419 636 485 q 736 261 736 354 q 696 119 736 182 q 583 19 656 56 q 417 -17 511 -17 m 417 556 q 560 603 508 556 q 613 728 613 651 q 560 853 613 806 q 417 900 508 900 q 273 853 325 900 q 221 728 221 806 q 273 603 221 651 q 417 556 325 556 m 417 72 q 575 123 514 72 q 636 271 636 174 q 575 419 636 369 q 417 469 514 469 q 258 419 319 469 q 197 271 197 369 q 258 123 197 174 q 417 72 319 72 z "},"9":{"ha":833,"x_min":85,"x_max":764,"o":"m 400 -17 q 246 19 314 -17 q 137 114 178 54 q 89 246 96 174 l 183 246 q 254 120 197 168 q 400 72 311 72 q 590 178 515 72 q 672 511 664 285 l 667 511 q 567 397 628 442 q 394 351 506 351 q 237 393 307 351 q 126 506 167 435 q 85 664 85 576 q 125 826 85 753 q 238 944 165 900 q 406 989 310 989 q 674 865 585 989 q 764 526 764 742 q 722 244 764 367 q 599 53 681 122 q 400 -17 518 -17 m 413 440 q 533 470 482 440 q 613 553 585 500 q 642 671 642 606 q 613 789 642 738 q 533 870 585 840 q 413 900 482 900 q 292 869 343 900 q 213 787 240 839 q 185 669 185 735 q 213 552 185 604 q 292 470 240 500 q 413 440 343 440 z "},"A":{"ha":833,"x_min":50,"x_max":783,"o":"m 50 0 l 363 972 l 472 972 l 783 0 l 676 0 l 600 247 l 233 247 l 157 0 l 50 0 m 414 836 l 258 331 l 575 331 l 419 836 l 414 836 z "},"Á":{"ha":833,"x_min":50,"x_max":783,"o":"m 50 0 l 363 972 l 472 972 l 783 0 l 676 0 l 600 247 l 233 247 l 157 0 l 50 0 m 414 836 l 258 331 l 575 331 l 419 836 l 414 836 z "},"Ă":{"ha":833,"x_min":50,"x_max":783,"o":"m 50 0 l 363 972 l 472 972 l 783 0 l 676 0 l 600 247 l 233 247 l 157 0 l 50 0 m 414 836 l 258 331 l 575 331 l 419 836 l 414 836 z "},"Â":{"ha":833,"x_min":50,"x_max":783,"o":"m 50 0 l 363 972 l 472 972 l 783 0 l 676 0 l 600 247 l 233 247 l 157 0 l 50 0 m 414 836 l 258 331 l 575 331 l 419 836 l 414 836 z "},"Ä":{"ha":833,"x_min":50,"x_max":783,"o":"m 50 0 l 363 972 l 472 972 l 783 0 l 676 0 l 600 247 l 233 247 l 157 0 l 50 0 m 414 836 l 258 331 l 575 331 l 419 836 l 414 836 z "},"À":{"ha":833,"x_min":50,"x_max":783,"o":"m 50 0 l 363 972 l 472 972 l 783 0 l 676 0 l 600 247 l 233 247 l 157 0 l 50 0 m 414 836 l 258 331 l 575 331 l 419 836 l 414 836 z "},"Ā":{"ha":833,"x_min":50,"x_max":783,"o":"m 50 0 l 363 972 l 472 972 l 783 0 l 676 0 l 600 247 l 233 247 l 157 0 l 50 0 m 414 836 l 258 331 l 575 331 l 419 836 l 414 836 z "},"Ą":{"ha":833,"x_min":50,"x_max":788,"o":"m 50 0 l 363 972 l 472 972 l 783 0 l 676 0 l 600 247 l 233 247 l 157 0 l 50 0 m 414 836 l 258 331 l 575 331 l 419 836 l 414 836 z "},"Å":{"ha":833,"x_min":50,"x_max":783,"o":"m 50 0 l 363 972 l 472 972 l 783 0 l 676 0 l 600 247 l 233 247 l 157 0 l 50 0 m 414 836 l 258 331 l 575 331 l 419 836 l 414 836 z "},"Ã":{"ha":833,"x_min":50,"x_max":783,"o":"m 50 0 l 363 972 l 472 972 l 783 0 l 676 0 l 600 247 l 233 247 l 157 0 l 50 0 m 414 836 l 258 331 l 575 331 l 419 836 l 414 836 z "},"Æ":{"ha":833,"x_min":6,"x_max":817,"o":"m 6 0 l 339 972 l 817 972 l 817 883 l 519 883 l 519 533 l 775 533 l 775 444 l 519 444 l 519 89 l 817 89 l 817 0 l 422 0 l 422 247 l 194 247 l 113 0 l 6 0 m 404 883 l 222 331 l 422 331 l 422 883 l 404 883 z "},"Ǽ":{"ha":833,"x_min":6,"x_max":817,"o":"m 6 0 l 339 972 l 817 972 l 817 883 l 519 883 l 519 533 l 775 533 l 775 444 l 519 444 l 519 89 l 817 89 l 817 0 l 422 0 l 422 247 l 194 247 l 113 0 l 6 0 m 404 883 l 222 331 l 422 331 l 422 883 l 404 883 z "},"B":{"ha":833,"x_min":101,"x_max":733,"o":"m 101 0 l 101 972 l 410 972 q 637 903 563 972 q 711 726 711 833 q 690 626 711 669 q 634 552 668 582 q 563 507 600 522 l 563 499 q 646 453 607 485 q 709 375 685 422 q 733 265 733 328 q 697 133 733 193 q 592 36 661 72 q 419 0 522 0 l 101 0 m 199 544 l 407 544 q 558 590 506 544 q 611 717 611 636 q 560 839 611 794 q 403 883 508 883 l 199 883 l 199 544 m 199 89 l 413 89 q 576 138 518 89 q 633 274 633 188 q 573 409 633 360 q 408 458 513 458 l 199 458 l 199 89 z "},"C":{"ha":833,"x_min":49,"x_max":769,"o":"m 426 -17 q 226 45 311 -17 q 94 219 140 107 q 49 486 49 332 q 94 753 49 640 q 226 927 140 865 q 426 989 311 989 q 663 908 572 989 q 769 694 753 828 l 661 694 q 587 839 647 781 q 426 897 526 897 q 224 788 299 897 q 149 486 149 679 q 224 184 149 293 q 426 75 299 75 q 590 131 532 75 q 661 275 647 188 l 769 275 q 660 62 747 140 q 426 -17 572 -17 z "},"Ć":{"ha":833,"x_min":49,"x_max":769,"o":"m 426 -17 q 226 45 311 -17 q 94 219 140 107 q 49 486 49 332 q 94 753 49 640 q 226 927 140 865 q 426 989 311 989 q 663 908 572 989 q 769 694 753 828 l 661 694 q 587 839 647 781 q 426 897 526 897 q 224 788 299 897 q 149 486 149 679 q 224 184 149 293 q 426 75 299 75 q 590 131 532 75 q 661 275 647 188 l 769 275 q 660 62 747 140 q 426 -17 572 -17 z "},"Č":{"ha":833,"x_min":49,"x_max":769,"o":"m 426 -17 q 226 45 311 -17 q 94 219 140 107 q 49 486 49 332 q 94 753 49 640 q 226 927 140 865 q 426 989 311 989 q 663 908 572 989 q 769 694 753 828 l 661 694 q 587 839 647 781 q 426 897 526 897 q 224 788 299 897 q 149 486 149 679 q 224 184 149 293 q 426 75 299 75 q 590 131 532 75 q 661 275 647 188 l 769 275 q 660 62 747 140 q 426 -17 572 -17 z "},"Ç":{"ha":833,"x_min":49,"x_max":769,"o":"m 426 -17 q 226 45 311 -17 q 94 219 140 107 q 49 486 49 332 q 94 753 49 640 q 226 927 140 865 q 426 989 311 989 q 663 908 572 989 q 769 694 753 828 l 661 694 q 587 839 647 781 q 426 897 526 897 q 224 788 299 897 q 149 486 149 679 q 224 184 149 293 q 426 75 299 75 q 590 131 532 75 q 661 275 647 188 l 769 275 q 660 62 747 140 q 426 -17 572 -17 z "},"Ċ":{"ha":833,"x_min":49,"x_max":769,"o":"m 426 -17 q 226 45 311 -17 q 94 219 140 107 q 49 486 49 332 q 94 753 49 640 q 226 927 140 865 q 426 989 311 989 q 663 908 572 989 q 769 694 753 828 l 661 694 q 587 839 647 781 q 426 897 526 897 q 224 788 299 897 q 149 486 149 679 q 224 184 149 293 q 426 75 299 75 q 590 131 532 75 q 661 275 647 188 l 769 275 q 660 62 747 140 q 426 -17 572 -17 z "},"D":{"ha":833,"x_min":100,"x_max":757,"o":"m 100 0 l 100 972 l 285 972 q 551 913 447 972 q 706 745 656 854 q 757 486 757 636 q 706 227 757 336 q 551 59 656 118 q 285 0 447 0 l 100 0 m 197 89 l 285 89 q 503 138 422 89 q 621 276 585 188 q 657 486 657 365 q 621 697 657 607 q 503 835 585 786 q 285 883 422 883 l 197 883 l 197 89 z "},"Ð":{"ha":833,"x_min":13,"x_max":757,"o":"m 128 0 l 128 443 l 13 443 l 13 529 l 128 529 l 128 972 l 285 972 q 551 913 447 972 q 706 745 656 854 q 757 486 757 636 q 706 227 757 336 q 551 59 656 118 q 285 0 447 0 l 128 0 m 225 89 l 285 89 q 503 138 422 89 q 621 276 585 188 q 657 486 657 365 q 621 697 657 607 q 503 835 585 786 q 285 883 422 883 l 225 883 l 225 529 l 429 529 l 429 443 l 225 443 l 225 89 z "},"Ď":{"ha":833,"x_min":100,"x_max":757,"o":"m 100 0 l 100 972 l 285 972 q 551 913 447 972 q 706 745 656 854 q 757 486 757 636 q 706 227 757 336 q 551 59 656 118 q 285 0 447 0 l 100 0 m 197 89 l 285 89 q 503 138 422 89 q 621 276 585 188 q 657 486 657 365 q 621 697 657 607 q 503 835 585 786 q 285 883 422 883 l 197 883 l 197 89 z "},"Đ":{"ha":833,"x_min":13,"x_max":757,"o":"m 128 0 l 128 443 l 13 443 l 13 529 l 128 529 l 128 972 l 285 972 q 551 913 447 972 q 706 745 656 854 q 757 486 757 636 q 706 227 757 336 q 551 59 656 118 q 285 0 447 0 l 128 0 m 225 89 l 285 89 q 503 138 422 89 q 621 276 585 188 q 657 486 657 365 q 621 697 657 607 q 503 835 585 786 q 285 883 422 883 l 225 883 l 225 529 l 429 529 l 429 443 l 225 443 l 225 89 z "},"E":{"ha":833,"x_min":124,"x_max":722,"o":"m 124 0 l 124 972 l 722 972 l 722 883 l 221 883 l 221 533 l 681 533 l 681 444 l 221 444 l 221 89 l 722 89 l 722 0 l 124 0 z "},"É":{"ha":833,"x_min":124,"x_max":722,"o":"m 124 0 l 124 972 l 722 972 l 722 883 l 221 883 l 221 533 l 681 533 l 681 444 l 221 444 l 221 89 l 722 89 l 722 0 l 124 0 z "},"Ĕ":{"ha":833,"x_min":124,"x_max":722,"o":"m 124 0 l 124 972 l 722 972 l 722 883 l 221 883 l 221 533 l 681 533 l 681 444 l 221 444 l 221 89 l 722 89 l 722 0 l 124 0 z "},"Ě":{"ha":833,"x_min":124,"x_max":722,"o":"m 124 0 l 124 972 l 722 972 l 722 883 l 221 883 l 221 533 l 681 533 l 681 444 l 221 444 l 221 89 l 722 89 l 722 0 l 124 0 z "},"Ê":{"ha":833,"x_min":124,"x_max":722,"o":"m 124 0 l 124 972 l 722 972 l 722 883 l 221 883 l 221 533 l 681 533 l 681 444 l 221 444 l 221 89 l 722 89 l 722 0 l 124 0 z "},"Ë":{"ha":833,"x_min":124,"x_max":722,"o":"m 124 0 l 124 972 l 722 972 l 722 883 l 221 883 l 221 533 l 681 533 l 681 444 l 221 444 l 221 89 l 722 89 l 722 0 l 124 0 z "},"Ė":{"ha":833,"x_min":124,"x_max":722,"o":"m 124 0 l 124 972 l 722 972 l 722 883 l 221 883 l 221 533 l 681 533 l 681 444 l 221 444 l 221 89 l 722 89 l 722 0 l 124 0 z "},"È":{"ha":833,"x_min":124,"x_max":722,"o":"m 124 0 l 124 972 l 722 972 l 722 883 l 221 883 l 221 533 l 681 533 l 681 444 l 221 444 l 221 89 l 722 89 l 722 0 l 124 0 z "},"Ē":{"ha":833,"x_min":124,"x_max":722,"o":"m 124 0 l 124 972 l 722 972 l 722 883 l 221 883 l 221 533 l 681 533 l 681 444 l 221 444 l 221 89 l 722 89 l 722 0 l 124 0 m 196 833 l 196 914 l 638 914 l 638 833 l 196 833 z "},"Ę":{"ha":833,"x_min":124,"x_max":726,"o":"m 124 0 l 124 972 l 722 972 l 722 883 l 221 883 l 221 533 l 681 533 l 681 444 l 221 444 l 221 89 l 722 89 l 722 0 l 124 0 z "},"Ẽ":{"ha":833,"x_min":124,"x_max":722,"o":"m 124 0 l 124 972 l 722 972 l 722 883 l 221 883 l 221 533 l 681 533 l 681 444 l 221 444 l 221 89 l 722 89 l 722 0 l 124 0 z "},"F":{"ha":833,"x_min":133,"x_max":728,"o":"m 133 0 l 133 972 l 728 972 l 728 883 l 231 883 l 231 518 l 661 518 l 661 429 l 231 429 l 231 0 l 133 0 z "},"G":{"ha":833,"x_min":60,"x_max":763,"o":"m 410 -17 q 229 43 308 -17 q 105 215 150 103 q 60 486 60 328 q 106 757 60 644 q 236 929 153 869 q 431 989 319 989 q 588 952 519 989 q 699 849 657 915 q 750 694 742 783 l 642 694 q 574 840 628 783 q 431 897 521 897 q 233 789 307 897 q 160 486 160 681 q 192 265 160 357 q 283 124 225 172 q 417 75 342 75 q 524 104 479 75 q 599 183 569 133 q 645 292 629 232 q 663 415 661 353 l 436 415 l 436 501 l 763 501 l 763 0 l 674 0 l 665 158 l 660 158 q 570 31 631 78 q 410 -17 510 -17 z "},"Ğ":{"ha":833,"x_min":60,"x_max":763,"o":"m 410 -17 q 229 43 308 -17 q 105 215 150 103 q 60 486 60 328 q 106 757 60 644 q 236 929 153 869 q 431 989 319 989 q 588 952 519 989 q 699 849 657 915 q 750 694 742 783 l 642 694 q 574 840 628 783 q 431 897 521 897 q 233 789 307 897 q 160 486 160 681 q 192 265 160 357 q 283 124 225 172 q 417 75 342 75 q 524 104 479 75 q 599 183 569 133 q 645 292 629 232 q 663 415 661 353 l 436 415 l 436 501 l 763 501 l 763 0 l 674 0 l 665 158 l 660 158 q 570 31 631 78 q 410 -17 510 -17 z "},"Ģ":{"ha":833,"x_min":60,"x_max":763,"o":"m 410 -17 q 229 43 308 -17 q 105 215 150 103 q 60 486 60 328 q 106 757 60 644 q 236 929 153 869 q 431 989 319 989 q 588 952 519 989 q 699 849 657 915 q 750 694 742 783 l 642 694 q 574 840 628 783 q 431 897 521 897 q 233 789 307 897 q 160 486 160 681 q 192 265 160 357 q 283 124 225 172 q 417 75 342 75 q 524 104 479 75 q 599 183 569 133 q 645 292 629 232 q 663 415 661 353 l 436 415 l 436 501 l 763 501 l 763 0 l 674 0 l 665 158 l 660 158 q 570 31 631 78 q 410 -17 510 -17 m 279 -356 l 360 -94 l 488 -94 l 369 -356 l 279 -356 z "},"Ġ":{"ha":833,"x_min":60,"x_max":763,"o":"m 410 -17 q 229 43 308 -17 q 105 215 150 103 q 60 486 60 328 q 106 757 60 644 q 236 929 153 869 q 431 989 319 989 q 588 952 519 989 q 699 849 657 915 q 750 694 742 783 l 642 694 q 574 840 628 783 q 431 897 521 897 q 233 789 307 897 q 160 486 160 681 q 192 265 160 357 q 283 124 225 172 q 417 75 342 75 q 524 104 479 75 q 599 183 569 133 q 645 292 629 232 q 663 415 661 353 l 436 415 l 436 501 l 763 501 l 763 0 l 674 0 l 665 158 l 660 158 q 570 31 631 78 q 410 -17 510 -17 z "},"H":{"ha":833,"x_min":69,"x_max":764,"o":"m 69 0 l 69 972 l 167 972 l 167 543 l 667 543 l 667 972 l 764 972 l 764 0 l 667 0 l 667 454 l 167 454 l 167 0 l 69 0 z "},"I":{"ha":833,"x_min":140,"x_max":693,"o":"m 140 0 l 140 83 l 368 83 l 368 889 l 140 889 l 140 972 l 693 972 l 693 889 l 465 889 l 465 83 l 693 83 l 693 0 l 140 0 z "},"Í":{"ha":833,"x_min":140,"x_max":693,"o":"m 140 0 l 140 83 l 368 83 l 368 889 l 140 889 l 140 972 l 693 972 l 693 889 l 465 889 l 465 83 l 693 83 l 693 0 l 140 0 z "},"Ĭ":{"ha":833,"x_min":140,"x_max":693,"o":"m 140 0 l 140 83 l 368 83 l 368 889 l 140 889 l 140 972 l 693 972 l 693 889 l 465 889 l 465 83 l 693 83 l 693 0 l 140 0 z "},"Î":{"ha":833,"x_min":140,"x_max":693,"o":"m 140 0 l 140 83 l 368 83 l 368 889 l 140 889 l 140 972 l 693 972 l 693 889 l 465 889 l 465 83 l 693 83 l 693 0 l 140 0 z "},"Ï":{"ha":833,"x_min":140,"x_max":693,"o":"m 140 0 l 140 83 l 368 83 l 368 889 l 140 889 l 140 972 l 693 972 l 693 889 l 465 889 l 465 83 l 693 83 l 693 0 l 140 0 z "},"İ":{"ha":833,"x_min":140,"x_max":693,"o":"m 140 0 l 140 83 l 368 83 l 368 889 l 140 889 l 140 972 l 693 972 l 693 889 l 465 889 l 465 83 l 693 83 l 693 0 l 140 0 z "},"Ì":{"ha":833,"x_min":140,"x_max":693,"o":"m 140 0 l 140 83 l 368 83 l 368 889 l 140 889 l 140 972 l 693 972 l 693 889 l 465 889 l 465 83 l 693 83 l 693 0 l 140 0 z "},"Ī":{"ha":833,"x_min":140,"x_max":693,"o":"m 140 0 l 140 83 l 368 83 l 368 889 l 140 889 l 140 972 l 693 972 l 693 889 l 465 889 l 465 83 l 693 83 l 693 0 l 140 0 z "},"Į":{"ha":833,"x_min":140,"x_max":697,"o":"m 140 0 l 140 83 l 368 83 l 368 889 l 140 889 l 140 972 l 693 972 l 693 889 l 465 889 l 465 83 l 693 83 l 693 0 l 140 0 z "},"Ĩ":{"ha":833,"x_min":140,"x_max":693,"o":"m 140 0 l 140 83 l 368 83 l 368 889 l 140 889 l 140 972 l 693 972 l 693 889 l 465 889 l 465 83 l 693 83 l 693 0 l 140 0 z "},"J":{"ha":833,"x_min":140,"x_max":704,"o":"m 426 -17 q 214 63 288 -17 q 140 282 140 143 l 239 282 q 260 179 240 226 q 320 103 279 132 q 426 75 361 75 q 566 133 525 75 q 607 281 607 192 l 607 972 l 704 972 l 704 281 q 632 60 704 138 q 426 -17 560 -17 z "},"K":{"ha":833,"x_min":118,"x_max":751,"o":"m 118 0 l 118 972 l 215 972 l 215 514 l 621 972 l 747 972 l 318 489 l 318 483 l 751 0 l 621 0 l 215 451 l 215 0 l 118 0 z "},"Ķ":{"ha":833,"x_min":118,"x_max":751,"o":"m 118 0 l 118 972 l 215 972 l 215 514 l 621 972 l 747 972 l 318 489 l 318 483 l 751 0 l 621 0 l 215 451 l 215 0 l 118 0 m 279 -356 l 360 -94 l 488 -94 l 369 -356 l 279 -356 z "},"L":{"ha":833,"x_min":126,"x_max":725,"o":"m 126 0 l 126 972 l 224 972 l 224 89 l 725 89 l 725 0 l 126 0 z "},"Ĺ":{"ha":833,"x_min":101,"x_max":725,"o":"m 126 0 l 126 972 l 224 972 l 224 89 l 725 89 l 725 0 l 126 0 z "},"Ľ":{"ha":833,"x_min":126,"x_max":729,"o":"m 126 0 l 126 972 l 224 972 l 224 89 l 725 89 l 725 0 l 126 0 m 539 661 l 608 972 l 729 972 l 626 661 l 539 661 z "},"Ļ":{"ha":833,"x_min":126,"x_max":725,"o":"m 126 0 l 126 972 l 224 972 l 224 89 l 725 89 l 725 0 l 126 0 m 288 -356 l 368 -94 l 496 -94 l 378 -356 l 288 -356 z "},"Ŀ":{"ha":833,"x_min":126,"x_max":725,"o":"m 126 0 l 126 972 l 224 972 l 224 89 l 725 89 l 725 0 l 126 0 m 611 394 q 547 422 574 394 q 519 486 519 449 q 547 551 519 524 q 611 578 574 578 q 676 551 649 578 q 703 486 703 524 q 676 422 703 449 q 611 394 649 394 z "},"Ł":{"ha":833,"x_min":28,"x_max":761,"o":"m 163 0 l 163 349 l 28 294 l 28 381 l 163 435 l 163 972 l 260 972 l 260 474 l 446 547 l 446 461 l 260 388 l 260 89 l 761 89 l 761 0 l 163 0 z "},"M":{"ha":833,"x_min":75,"x_max":758,"o":"m 75 0 l 75 972 l 181 972 l 417 494 l 651 972 l 758 972 l 758 0 l 661 0 l 661 782 l 453 361 l 381 361 l 172 781 l 172 0 l 75 0 z "},"N":{"ha":833,"x_min":83,"x_max":750,"o":"m 83 0 l 83 972 l 189 972 l 653 169 l 653 972 l 750 972 l 750 0 l 644 0 l 181 804 l 181 0 l 83 0 z "},"Ń":{"ha":833,"x_min":83,"x_max":750,"o":"m 83 0 l 83 972 l 189 972 l 653 169 l 653 972 l 750 972 l 750 0 l 644 0 l 181 804 l 181 0 l 83 0 z "},"Ň":{"ha":833,"x_min":83,"x_max":750,"o":"m 83 0 l 83 972 l 189 972 l 653 169 l 653 972 l 750 972 l 750 0 l 644 0 l 181 804 l 181 0 l 83 0 z "},"Ņ":{"ha":833,"x_min":83,"x_max":750,"o":"m 83 0 l 83 972 l 189 972 l 653 169 l 653 972 l 750 972 l 750 0 l 644 0 l 181 804 l 181 0 l 83 0 m 279 -356 l 360 -94 l 488 -94 l 369 -356 l 279 -356 z "},"Ñ":{"ha":833,"x_min":83,"x_max":750,"o":"m 83 0 l 83 972 l 189 972 l 653 169 l 653 972 l 750 972 l 750 0 l 644 0 l 181 804 l 181 0 l 83 0 z "},"O":{"ha":833,"x_min":42,"x_max":792,"o":"m 417 -17 q 216 47 300 -17 q 87 223 132 110 q 42 486 42 336 q 87 748 42 635 q 216 925 132 861 q 417 989 300 989 q 618 925 535 989 q 747 748 701 861 q 792 486 792 635 q 747 223 792 336 q 618 47 701 110 q 417 -17 535 -17 m 417 75 q 616 183 540 75 q 692 486 692 290 q 616 790 692 682 q 417 897 540 897 q 218 790 294 897 q 142 486 142 682 q 218 183 142 290 q 417 75 294 75 z "},"Ó":{"ha":833,"x_min":42,"x_max":792,"o":"m 417 -17 q 216 47 300 -17 q 87 223 132 110 q 42 486 42 336 q 87 748 42 635 q 216 925 132 861 q 417 989 300 989 q 618 925 535 989 q 747 748 701 861 q 792 486 792 635 q 747 223 792 336 q 618 47 701 110 q 417 -17 535 -17 m 417 75 q 616 183 540 75 q 692 486 692 290 q 616 790 692 682 q 417 897 540 897 q 218 790 294 897 q 142 486 142 682 q 218 183 142 290 q 417 75 294 75 z "},"Ŏ":{"ha":833,"x_min":42,"x_max":792,"o":"m 417 -17 q 216 47 300 -17 q 87 223 132 110 q 42 486 42 336 q 87 748 42 635 q 216 925 132 861 q 417 989 300 989 q 618 925 535 989 q 747 748 701 861 q 792 486 792 635 q 747 223 792 336 q 618 47 701 110 q 417 -17 535 -17 m 417 75 q 616 183 540 75 q 692 486 692 290 q 616 790 692 682 q 417 897 540 897 q 218 790 294 897 q 142 486 142 682 q 218 183 142 290 q 417 75 294 75 z "},"Ô":{"ha":833,"x_min":42,"x_max":792,"o":"m 417 -17 q 216 47 300 -17 q 87 223 132 110 q 42 486 42 336 q 87 748 42 635 q 216 925 132 861 q 417 989 300 989 q 618 925 535 989 q 747 748 701 861 q 792 486 792 635 q 747 223 792 336 q 618 47 701 110 q 417 -17 535 -17 m 417 75 q 616 183 540 75 q 692 486 692 290 q 616 790 692 682 q 417 897 540 897 q 218 790 294 897 q 142 486 142 682 q 218 183 142 290 q 417 75 294 75 z "},"Ö":{"ha":833,"x_min":42,"x_max":792,"o":"m 417 -17 q 216 47 300 -17 q 87 223 132 110 q 42 486 42 336 q 87 748 42 635 q 216 925 132 861 q 417 989 300 989 q 618 925 535 989 q 747 748 701 861 q 792 486 792 635 q 747 223 792 336 q 618 47 701 110 q 417 -17 535 -17 m 417 75 q 616 183 540 75 q 692 486 692 290 q 616 790 692 682 q 417 897 540 897 q 218 790 294 897 q 142 486 142 682 q 218 183 142 290 q 417 75 294 75 z "},"Ò":{"ha":833,"x_min":42,"x_max":792,"o":"m 417 -17 q 216 47 300 -17 q 87 223 132 110 q 42 486 42 336 q 87 748 42 635 q 216 925 132 861 q 417 989 300 989 q 618 925 535 989 q 747 748 701 861 q 792 486 792 635 q 747 223 792 336 q 618 47 701 110 q 417 -17 535 -17 m 417 75 q 616 183 540 75 q 692 486 692 290 q 616 790 692 682 q 417 897 540 897 q 218 790 294 897 q 142 486 142 682 q 218 183 142 290 q 417 75 294 75 z "},"Ő":{"ha":833,"x_min":42,"x_max":792,"o":"m 417 -17 q 216 47 300 -17 q 87 223 132 110 q 42 486 42 336 q 87 748 42 635 q 216 925 132 861 q 417 989 300 989 q 618 925 535 989 q 747 748 701 861 q 792 486 792 635 q 747 223 792 336 q 618 47 701 110 q 417 -17 535 -17 m 417 75 q 616 183 540 75 q 692 486 692 290 q 616 790 692 682 q 417 897 540 897 q 218 790 294 897 q 142 486 142 682 q 218 183 142 290 q 417 75 294 75 z "},"Ō":{"ha":833,"x_min":42,"x_max":792,"o":"m 417 -17 q 216 47 300 -17 q 87 223 132 110 q 42 486 42 336 q 87 748 42 635 q 216 925 132 861 q 417 989 300 989 q 618 925 535 989 q 747 748 701 861 q 792 486 792 635 q 747 223 792 336 q 618 47 701 110 q 417 -17 535 -17 m 417 75 q 616 183 540 75 q 692 486 692 290 q 616 790 692 682 q 417 897 540 897 q 218 790 294 897 q 142 486 142 682 q 218 183 142 290 q 417 75 294 75 z "},"Ø":{"ha":833,"x_min":40,"x_max":794,"o":"m 40 -28 l 138 126 q 42 486 42 263 q 87 748 42 635 q 216 925 132 861 q 417 989 300 989 q 535 969 481 989 q 635 911 590 949 l 690 1000 l 794 1000 l 696 844 q 792 486 792 707 q 747 223 792 336 q 618 47 701 110 q 417 -17 535 -17 q 299 3 353 -17 q 200 58 244 22 l 146 -28 l 40 -28 m 142 486 q 156 337 142 404 q 196 218 169 269 l 582 829 q 417 897 514 897 q 218 790 294 897 q 142 486 142 682 m 417 75 q 616 183 540 75 q 692 486 692 290 q 678 635 692 568 q 638 751 664 701 l 253 142 q 417 75 321 75 z "},"Õ":{"ha":833,"x_min":42,"x_max":792,"o":"m 417 -17 q 216 47 300 -17 q 87 223 132 110 q 42 486 42 336 q 87 748 42 635 q 216 925 132 861 q 417 989 300 989 q 618 925 535 989 q 747 748 701 861 q 792 486 792 635 q 747 223 792 336 q 618 47 701 110 q 417 -17 535 -17 m 417 75 q 616 183 540 75 q 692 486 692 290 q 616 790 692 682 q 417 897 540 897 q 218 790 294 897 q 142 486 142 682 q 218 183 142 290 q 417 75 294 75 z "},"Œ":{"ha":833,"x_min":32,"x_max":817,"o":"m 271 -17 q 147 34 201 -17 q 63 196 93 85 q 32 486 32 307 q 63 777 32 667 q 147 938 93 888 q 271 989 201 989 q 368 965 326 989 q 435 886 410 940 l 440 886 l 440 972 l 817 972 l 817 883 l 538 883 l 538 533 l 775 533 l 775 444 l 538 444 l 538 89 l 817 89 l 817 0 l 440 0 l 440 101 l 435 101 q 374 15 411 46 q 271 -17 336 -17 m 285 74 q 404 169 363 74 q 446 486 446 265 q 404 802 446 707 q 285 897 363 897 q 170 802 208 897 q 132 486 132 707 q 170 169 132 265 q 285 74 208 74 z "},"P":{"ha":833,"x_min":106,"x_max":740,"o":"m 106 0 l 106 972 l 425 972 q 607 931 538 972 q 708 824 676 890 q 740 679 740 757 q 708 535 740 603 q 607 427 676 468 q 425 386 538 386 l 203 386 l 203 0 l 106 0 m 203 475 l 425 475 q 586 533 532 475 q 640 679 640 590 q 586 826 640 769 q 425 883 532 883 l 203 883 l 203 475 z "},"Þ":{"ha":833,"x_min":106,"x_max":740,"o":"m 106 0 l 106 972 l 203 972 l 203 779 l 425 779 q 607 738 538 779 q 708 631 676 697 q 740 486 740 564 q 708 342 740 410 q 607 234 676 275 q 425 193 538 193 l 203 193 l 203 0 l 106 0 m 203 282 l 425 282 q 586 340 532 282 q 640 486 640 397 q 586 633 640 576 q 425 690 532 690 l 203 690 l 203 282 z "},"Q":{"ha":833,"x_min":42,"x_max":792,"o":"m 417 -17 q 216 47 300 -17 q 87 223 132 110 q 42 486 42 336 q 87 748 42 635 q 216 925 132 861 q 417 989 300 989 q 618 925 535 989 q 747 748 701 861 q 792 486 792 635 q 730 186 792 311 q 557 11 668 61 l 767 -204 l 636 -204 l 454 -15 q 417 -17 436 -17 m 417 75 q 616 183 540 75 q 692 486 692 290 q 616 790 692 682 q 417 897 540 897 q 218 790 294 897 q 142 486 142 682 q 218 183 142 290 q 417 75 294 75 z "},"R":{"ha":833,"x_min":119,"x_max":744,"o":"m 119 0 l 119 972 l 407 972 q 590 935 518 972 q 698 835 663 899 q 733 690 733 772 q 683 521 733 593 q 529 422 633 449 l 744 0 l 628 0 l 425 407 q 407 407 417 407 l 217 407 l 217 0 l 119 0 m 217 497 l 404 497 q 578 552 524 497 q 633 690 633 607 q 580 831 633 779 q 403 883 526 883 l 217 883 l 217 497 z "},"Ŕ":{"ha":833,"x_min":119,"x_max":744,"o":"m 119 0 l 119 972 l 407 972 q 590 935 518 972 q 698 835 663 899 q 733 690 733 772 q 683 521 733 593 q 529 422 633 449 l 744 0 l 628 0 l 425 407 q 407 407 417 407 l 217 407 l 217 0 l 119 0 m 217 497 l 404 497 q 578 552 524 497 q 633 690 633 607 q 580 831 633 779 q 403 883 526 883 l 217 883 l 217 497 z "},"Ř":{"ha":833,"x_min":119,"x_max":744,"o":"m 119 0 l 119 972 l 407 972 q 590 935 518 972 q 698 835 663 899 q 733 690 733 772 q 683 521 733 593 q 529 422 633 449 l 744 0 l 628 0 l 425 407 q 407 407 417 407 l 217 407 l 217 0 l 119 0 m 217 497 l 404 497 q 578 552 524 497 q 633 690 633 607 q 580 831 633 779 q 403 883 526 883 l 217 883 l 217 497 z "},"Ŗ":{"ha":833,"x_min":119,"x_max":744,"o":"m 119 0 l 119 972 l 407 972 q 590 935 518 972 q 698 835 663 899 q 733 690 733 772 q 683 521 733 593 q 529 422 633 449 l 744 0 l 628 0 l 425 407 q 407 407 417 407 l 217 407 l 217 0 l 119 0 m 217 497 l 404 497 q 578 552 524 497 q 633 690 633 607 q 580 831 633 779 q 403 883 526 883 l 217 883 l 217 497 m 279 -356 l 360 -94 l 488 -94 l 369 -356 l 279 -356 z "},"S":{"ha":833,"x_min":94,"x_max":743,"o":"m 426 -17 q 250 23 325 -17 q 135 132 175 63 q 94 293 94 201 l 196 293 q 222 183 196 233 q 300 103 249 133 q 426 72 351 72 q 588 124 532 72 q 643 244 643 176 q 620 338 643 300 q 542 407 597 376 q 388 467 486 438 q 183 578 247 510 q 119 751 119 647 q 154 872 119 818 q 256 957 189 925 q 419 989 324 989 q 578 954 511 989 q 683 859 646 919 q 719 722 719 799 l 619 722 q 597 805 619 764 q 530 873 575 846 q 414 900 485 900 q 275 860 331 900 q 219 750 219 821 q 242 665 219 700 q 318 602 264 631 q 467 542 372 574 q 619 474 557 511 q 712 384 681 438 q 743 250 743 331 q 702 112 743 172 q 590 17 661 51 q 426 -17 519 -17 z "},"Ś":{"ha":833,"x_min":94,"x_max":743,"o":"m 426 -17 q 250 23 325 -17 q 135 132 175 63 q 94 293 94 201 l 196 293 q 222 183 196 233 q 300 103 249 133 q 426 72 351 72 q 588 124 532 72 q 643 244 643 176 q 620 338 643 300 q 542 407 597 376 q 388 467 486 438 q 183 578 247 510 q 119 751 119 647 q 154 872 119 818 q 256 957 189 925 q 419 989 324 989 q 578 954 511 989 q 683 859 646 919 q 719 722 719 799 l 619 722 q 597 805 619 764 q 530 873 575 846 q 414 900 485 900 q 275 860 331 900 q 219 750 219 821 q 242 665 219 700 q 318 602 264 631 q 467 542 372 574 q 619 474 557 511 q 712 384 681 438 q 743 250 743 331 q 702 112 743 172 q 590 17 661 51 q 426 -17 519 -17 z "},"Š":{"ha":833,"x_min":94,"x_max":743,"o":"m 426 -17 q 250 23 325 -17 q 135 132 175 63 q 94 293 94 201 l 196 293 q 222 183 196 233 q 300 103 249 133 q 426 72 351 72 q 588 124 532 72 q 643 244 643 176 q 620 338 643 300 q 542 407 597 376 q 388 467 486 438 q 183 578 247 510 q 119 751 119 647 q 154 872 119 818 q 256 957 189 925 q 419 989 324 989 q 578 954 511 989 q 683 859 646 919 q 719 722 719 799 l 619 722 q 597 805 619 764 q 530 873 575 846 q 414 900 485 900 q 275 860 331 900 q 219 750 219 821 q 242 665 219 700 q 318 602 264 631 q 467 542 372 574 q 619 474 557 511 q 712 384 681 438 q 743 250 743 331 q 702 112 743 172 q 590 17 661 51 q 426 -17 519 -17 z "},"Ş":{"ha":833,"x_min":94,"x_max":743,"o":"m 426 -17 q 250 23 325 -17 q 135 132 175 63 q 94 293 94 201 l 196 293 q 222 183 196 233 q 300 103 249 133 q 426 72 351 72 q 588 124 532 72 q 643 244 643 176 q 620 338 643 300 q 542 407 597 376 q 388 467 486 438 q 183 578 247 510 q 119 751 119 647 q 154 872 119 818 q 256 957 189 925 q 419 989 324 989 q 578 954 511 989 q 683 859 646 919 q 719 722 719 799 l 619 722 q 597 805 619 764 q 530 873 575 846 q 414 900 485 900 q 275 860 331 900 q 219 750 219 821 q 242 665 219 700 q 318 602 264 631 q 467 542 372 574 q 619 474 557 511 q 712 384 681 438 q 743 250 743 331 q 702 112 743 172 q 590 17 661 51 q 426 -17 519 -17 z "},"Ș":{"ha":833,"x_min":94,"x_max":743,"o":"m 426 -17 q 250 23 325 -17 q 135 132 175 63 q 94 293 94 201 l 196 293 q 222 183 196 233 q 300 103 249 133 q 426 72 351 72 q 588 124 532 72 q 643 244 643 176 q 620 338 643 300 q 542 407 597 376 q 388 467 486 438 q 183 578 247 510 q 119 751 119 647 q 154 872 119 818 q 256 957 189 925 q 419 989 324 989 q 578 954 511 989 q 683 859 646 919 q 719 722 719 799 l 619 722 q 597 805 619 764 q 530 873 575 846 q 414 900 485 900 q 275 860 331 900 q 219 750 219 821 q 242 665 219 700 q 318 602 264 631 q 467 542 372 574 q 619 474 557 511 q 712 384 681 438 q 743 250 743 331 q 702 112 743 172 q 590 17 661 51 q 426 -17 519 -17 m 279 -356 l 360 -94 l 488 -94 l 369 -356 l 279 -356 z "},"Ə":{"ha":833,"x_min":58,"x_max":792,"o":"m 396 -17 q 241 22 306 -17 q 136 127 176 61 q 77 278 96 193 q 58 454 58 363 q 59 486 58 469 q 61 521 60 503 l 692 521 q 647 732 688 649 q 545 856 607 815 q 414 897 483 897 q 259 847 322 897 q 176 715 196 797 l 76 715 q 133 847 92 785 q 245 949 175 910 q 414 989 315 989 q 616 928 532 989 q 746 756 700 867 q 792 496 792 646 q 742 225 792 340 q 604 47 693 110 q 396 -17 515 -17 m 400 72 q 540 115 476 72 q 644 237 604 157 q 690 429 685 317 l 158 429 q 219 169 161 265 q 400 72 276 72 z "},"T":{"ha":833,"x_min":107,"x_max":726,"o":"m 368 0 l 368 883 l 107 883 l 107 972 l 726 972 l 726 883 l 465 883 l 465 0 l 368 0 z "},"Ť":{"ha":833,"x_min":107,"x_max":726,"o":"m 368 0 l 368 883 l 107 883 l 107 972 l 726 972 l 726 883 l 465 883 l 465 0 l 368 0 z "},"Ţ":{"ha":833,"x_min":107,"x_max":726,"o":"m 368 0 l 368 883 l 107 883 l 107 972 l 726 972 l 726 883 l 465 883 l 465 0 l 368 0 z "},"Ț":{"ha":833,"x_min":107,"x_max":726,"o":"m 368 0 l 368 883 l 107 883 l 107 972 l 726 972 l 726 883 l 465 883 l 465 0 l 368 0 m 279 -356 l 360 -94 l 488 -94 l 369 -356 l 279 -356 z "},"U":{"ha":833,"x_min":83,"x_max":750,"o":"m 417 -17 q 245 24 321 -17 q 126 147 169 65 q 83 354 83 229 l 83 972 l 181 972 l 181 353 q 247 145 181 218 q 418 72 313 72 q 588 145 524 72 q 653 353 653 218 l 653 972 l 750 972 l 750 354 q 707 147 750 229 q 588 24 664 65 q 417 -17 513 -17 z "},"Ú":{"ha":833,"x_min":83,"x_max":750,"o":"m 417 -17 q 245 24 321 -17 q 126 147 169 65 q 83 354 83 229 l 83 972 l 181 972 l 181 353 q 247 145 181 218 q 418 72 313 72 q 588 145 524 72 q 653 353 653 218 l 653 972 l 750 972 l 750 354 q 707 147 750 229 q 588 24 664 65 q 417 -17 513 -17 z "},"Ŭ":{"ha":833,"x_min":83,"x_max":750,"o":"m 417 -17 q 245 24 321 -17 q 126 147 169 65 q 83 354 83 229 l 83 972 l 181 972 l 181 353 q 247 145 181 218 q 418 72 313 72 q 588 145 524 72 q 653 353 653 218 l 653 972 l 750 972 l 750 354 q 707 147 750 229 q 588 24 664 65 q 417 -17 513 -17 z "},"Û":{"ha":833,"x_min":83,"x_max":750,"o":"m 417 -17 q 245 24 321 -17 q 126 147 169 65 q 83 354 83 229 l 83 972 l 181 972 l 181 353 q 247 145 181 218 q 418 72 313 72 q 588 145 524 72 q 653 353 653 218 l 653 972 l 750 972 l 750 354 q 707 147 750 229 q 588 24 664 65 q 417 -17 513 -17 z "},"Ü":{"ha":833,"x_min":83,"x_max":750,"o":"m 417 -17 q 245 24 321 -17 q 126 147 169 65 q 83 354 83 229 l 83 972 l 181 972 l 181 353 q 247 145 181 218 q 418 72 313 72 q 588 145 524 72 q 653 353 653 218 l 653 972 l 750 972 l 750 354 q 707 147 750 229 q 588 24 664 65 q 417 -17 513 -17 z "},"Ù":{"ha":833,"x_min":83,"x_max":750,"o":"m 417 -17 q 245 24 321 -17 q 126 147 169 65 q 83 354 83 229 l 83 972 l 181 972 l 181 353 q 247 145 181 218 q 418 72 313 72 q 588 145 524 72 q 653 353 653 218 l 653 972 l 750 972 l 750 354 q 707 147 750 229 q 588 24 664 65 q 417 -17 513 -17 z "},"Ű":{"ha":833,"x_min":83,"x_max":750,"o":"m 417 -17 q 245 24 321 -17 q 126 147 169 65 q 83 354 83 229 l 83 972 l 181 972 l 181 353 q 247 145 181 218 q 418 72 313 72 q 588 145 524 72 q 653 353 653 218 l 653 972 l 750 972 l 750 354 q 707 147 750 229 q 588 24 664 65 q 417 -17 513 -17 z "},"Ū":{"ha":833,"x_min":83,"x_max":750,"o":"m 417 -17 q 245 24 321 -17 q 126 147 169 65 q 83 354 83 229 l 83 972 l 181 972 l 181 353 q 247 145 181 218 q 418 72 313 72 q 588 145 524 72 q 653 353 653 218 l 653 972 l 750 972 l 750 354 q 707 147 750 229 q 588 24 664 65 q 417 -17 513 -17 z "},"Ų":{"ha":833,"x_min":83,"x_max":750,"o":"m 417 -17 q 245 24 321 -17 q 126 147 169 65 q 83 354 83 229 l 83 972 l 181 972 l 181 353 q 247 145 181 218 q 418 72 313 72 q 588 145 524 72 q 653 353 653 218 l 653 972 l 750 972 l 750 354 q 707 147 750 229 q 588 24 664 65 q 417 -17 513 -17 z "},"Ů":{"ha":833,"x_min":83,"x_max":750,"o":"m 417 -17 q 245 24 321 -17 q 126 147 169 65 q 83 354 83 229 l 83 972 l 181 972 l 181 353 q 247 145 181 218 q 418 72 313 72 q 588 145 524 72 q 653 353 653 218 l 653 972 l 750 972 l 750 354 q 707 147 750 229 q 588 24 664 65 q 417 -17 513 -17 z "},"Ũ":{"ha":833,"x_min":83,"x_max":750,"o":"m 417 -17 q 245 24 321 -17 q 126 147 169 65 q 83 354 83 229 l 83 972 l 181 972 l 181 353 q 247 145 181 218 q 418 72 313 72 q 588 145 524 72 q 653 353 653 218 l 653 972 l 750 972 l 750 354 q 707 147 750 229 q 588 24 664 65 q 417 -17 513 -17 z "},"V":{"ha":833,"x_min":42,"x_max":792,"o":"m 358 0 l 42 972 l 147 972 l 417 125 l 686 972 l 792 972 l 475 0 l 358 0 z "},"W":{"ha":833,"x_min":4,"x_max":829,"o":"m 161 0 l 4 972 l 106 972 l 217 196 l 365 972 l 468 972 l 617 196 l 728 972 l 829 972 l 672 0 l 563 0 l 417 786 l 271 0 l 161 0 z "},"Ẃ":{"ha":833,"x_min":4,"x_max":829,"o":"m 161 0 l 4 972 l 106 972 l 217 196 l 365 972 l 468 972 l 617 196 l 728 972 l 829 972 l 672 0 l 563 0 l 417 786 l 271 0 l 161 0 z "},"Ŵ":{"ha":833,"x_min":4,"x_max":829,"o":"m 161 0 l 4 972 l 106 972 l 217 196 l 365 972 l 468 972 l 617 196 l 728 972 l 829 972 l 672 0 l 563 0 l 417 786 l 271 0 l 161 0 z "},"Ẅ":{"ha":833,"x_min":4,"x_max":829,"o":"m 161 0 l 4 972 l 106 972 l 217 196 l 365 972 l 468 972 l 617 196 l 728 972 l 829 972 l 672 0 l 563 0 l 417 786 l 271 0 l 161 0 z "},"Ẁ":{"ha":833,"x_min":4,"x_max":829,"o":"m 161 0 l 4 972 l 106 972 l 217 196 l 365 972 l 468 972 l 617 196 l 728 972 l 829 972 l 672 0 l 563 0 l 417 786 l 271 0 l 161 0 z "},"X":{"ha":833,"x_min":67,"x_max":767,"o":"m 67 0 l 361 485 l 67 972 l 178 972 l 419 572 l 656 972 l 767 972 l 472 486 l 765 0 l 656 0 l 413 400 l 178 0 l 67 0 z "},"Y":{"ha":833,"x_min":56,"x_max":778,"o":"m 368 0 l 368 389 l 56 972 l 165 972 l 417 485 l 668 972 l 778 972 l 465 389 l 465 0 l 368 0 z "},"Ý":{"ha":833,"x_min":56,"x_max":778,"o":"m 368 0 l 368 389 l 56 972 l 165 972 l 417 485 l 668 972 l 778 972 l 465 389 l 465 0 l 368 0 z "},"Ŷ":{"ha":833,"x_min":56,"x_max":778,"o":"m 368 0 l 368 389 l 56 972 l 165 972 l 417 485 l 668 972 l 778 972 l 465 389 l 465 0 l 368 0 z "},"Ÿ":{"ha":833,"x_min":56,"x_max":778,"o":"m 368 0 l 368 389 l 56 972 l 165 972 l 417 485 l 668 972 l 778 972 l 465 389 l 465 0 l 368 0 z "},"Ỳ":{"ha":833,"x_min":56,"x_max":778,"o":"m 368 0 l 368 389 l 56 972 l 165 972 l 417 485 l 668 972 l 778 972 l 465 389 l 465 0 l 368 0 z "},"Ỹ":{"ha":833,"x_min":56,"x_max":778,"o":"m 368 0 l 368 389 l 56 972 l 165 972 l 417 485 l 668 972 l 778 972 l 465 389 l 465 0 l 368 0 z "},"Z":{"ha":833,"x_min":101,"x_max":733,"o":"m 101 0 l 101 81 l 615 883 l 110 883 l 110 972 l 726 972 l 726 892 l 213 89 l 733 89 l 733 0 l 101 0 z "},"Ź":{"ha":833,"x_min":101,"x_max":733,"o":"m 101 0 l 101 81 l 615 883 l 110 883 l 110 972 l 726 972 l 726 892 l 213 89 l 733 89 l 733 0 l 101 0 z "},"Ž":{"ha":833,"x_min":101,"x_max":733,"o":"m 101 0 l 101 81 l 615 883 l 110 883 l 110 972 l 726 972 l 726 892 l 213 89 l 733 89 l 733 0 l 101 0 z "},"Ż":{"ha":833,"x_min":101,"x_max":733,"o":"m 101 0 l 101 81 l 615 883 l 110 883 l 110 972 l 726 972 l 726 892 l 213 89 l 733 89 l 733 0 l 101 0 z "},"a":{"ha":833,"x_min":121,"x_max":697,"o":"m 361 -17 q 226 13 279 -17 q 147 90 172 42 q 121 196 121 139 q 201 358 121 304 q 403 411 281 411 l 600 411 l 600 424 q 553 570 600 521 q 421 619 507 619 q 302 588 349 619 q 243 490 256 557 l 140 490 q 187 608 147 560 q 288 681 226 656 q 421 706 349 706 q 631 627 565 706 q 697 424 697 549 l 697 0 l 614 0 l 604 111 l 596 111 q 511 22 565 60 q 361 -17 457 -17 m 376 72 q 496 107 446 72 q 573 197 546 142 q 600 314 600 253 l 600 328 l 410 328 q 265 292 307 328 q 222 199 222 256 q 261 106 222 140 q 376 72 300 72 z "},"á":{"ha":833,"x_min":121,"x_max":697,"o":"m 361 -17 q 226 13 279 -17 q 147 90 172 42 q 121 196 121 139 q 201 358 121 304 q 403 411 281 411 l 600 411 l 600 424 q 553 570 600 521 q 421 619 507 619 q 302 588 349 619 q 243 490 256 557 l 140 490 q 187 608 147 560 q 288 681 226 656 q 421 706 349 706 q 631 627 565 706 q 697 424 697 549 l 697 0 l 614 0 l 604 111 l 596 111 q 511 22 565 60 q 361 -17 457 -17 m 376 72 q 496 107 446 72 q 573 197 546 142 q 600 314 600 253 l 600 328 l 410 328 q 265 292 307 328 q 222 199 222 256 q 261 106 222 140 q 376 72 300 72 z "},"ă":{"ha":833,"x_min":121,"x_max":697,"o":"m 361 -17 q 226 13 279 -17 q 147 90 172 42 q 121 196 121 139 q 201 358 121 304 q 403 411 281 411 l 600 411 l 600 424 q 553 570 600 521 q 421 619 507 619 q 302 588 349 619 q 243 490 256 557 l 140 490 q 187 608 147 560 q 288 681 226 656 q 421 706 349 706 q 631 627 565 706 q 697 424 697 549 l 697 0 l 614 0 l 604 111 l 596 111 q 511 22 565 60 q 361 -17 457 -17 m 376 72 q 496 107 446 72 q 573 197 546 142 q 600 314 600 253 l 600 328 l 410 328 q 265 292 307 328 q 222 199 222 256 q 261 106 222 140 q 376 72 300 72 z "},"â":{"ha":833,"x_min":121,"x_max":697,"o":"m 361 -17 q 226 13 279 -17 q 147 90 172 42 q 121 196 121 139 q 201 358 121 304 q 403 411 281 411 l 600 411 l 600 424 q 553 570 600 521 q 421 619 507 619 q 302 588 349 619 q 243 490 256 557 l 140 490 q 187 608 147 560 q 288 681 226 656 q 421 706 349 706 q 631 627 565 706 q 697 424 697 549 l 697 0 l 614 0 l 604 111 l 596 111 q 511 22 565 60 q 361 -17 457 -17 m 376 72 q 496 107 446 72 q 573 197 546 142 q 600 314 600 253 l 600 328 l 410 328 q 265 292 307 328 q 222 199 222 256 q 261 106 222 140 q 376 72 300 72 z "},"ä":{"ha":833,"x_min":121,"x_max":697,"o":"m 361 -17 q 226 13 279 -17 q 147 90 172 42 q 121 196 121 139 q 201 358 121 304 q 403 411 281 411 l 600 411 l 600 424 q 553 570 600 521 q 421 619 507 619 q 302 588 349 619 q 243 490 256 557 l 140 490 q 187 608 147 560 q 288 681 226 656 q 421 706 349 706 q 631 627 565 706 q 697 424 697 549 l 697 0 l 614 0 l 604 111 l 596 111 q 511 22 565 60 q 361 -17 457 -17 m 376 72 q 496 107 446 72 q 573 197 546 142 q 600 314 600 253 l 600 328 l 410 328 q 265 292 307 328 q 222 199 222 256 q 261 106 222 140 q 376 72 300 72 z "},"à":{"ha":833,"x_min":121,"x_max":697,"o":"m 361 -17 q 226 13 279 -17 q 147 90 172 42 q 121 196 121 139 q 201 358 121 304 q 403 411 281 411 l 600 411 l 600 424 q 553 570 600 521 q 421 619 507 619 q 302 588 349 619 q 243 490 256 557 l 140 490 q 187 608 147 560 q 288 681 226 656 q 421 706 349 706 q 631 627 565 706 q 697 424 697 549 l 697 0 l 614 0 l 604 111 l 596 111 q 511 22 565 60 q 361 -17 457 -17 m 376 72 q 496 107 446 72 q 573 197 546 142 q 600 314 600 253 l 600 328 l 410 328 q 265 292 307 328 q 222 199 222 256 q 261 106 222 140 q 376 72 300 72 z "},"ā":{"ha":833,"x_min":121,"x_max":697,"o":"m 361 -17 q 226 13 279 -17 q 147 90 172 42 q 121 196 121 139 q 201 358 121 304 q 403 411 281 411 l 600 411 l 600 424 q 553 570 600 521 q 421 619 507 619 q 302 588 349 619 q 243 490 256 557 l 140 490 q 187 608 147 560 q 288 681 226 656 q 421 706 349 706 q 631 627 565 706 q 697 424 697 549 l 697 0 l 614 0 l 604 111 l 596 111 q 511 22 565 60 q 361 -17 457 -17 m 376 72 q 496 107 446 72 q 573 197 546 142 q 600 314 600 253 l 600 328 l 410 328 q 265 292 307 328 q 222 199 222 256 q 261 106 222 140 q 376 72 300 72 z "},"ą":{"ha":833,"x_min":121,"x_max":701,"o":"m 361 -17 q 226 13 279 -17 q 147 90 172 42 q 121 196 121 139 q 201 358 121 304 q 403 411 281 411 l 600 411 l 600 424 q 553 570 600 521 q 421 619 507 619 q 302 588 349 619 q 243 490 256 557 l 140 490 q 187 608 147 560 q 288 681 226 656 q 421 706 349 706 q 631 627 565 706 q 697 424 697 549 l 697 0 l 614 0 l 604 111 l 596 111 q 511 22 565 60 q 361 -17 457 -17 m 376 72 q 496 107 446 72 q 573 197 546 142 q 600 314 600 253 l 600 328 l 410 328 q 265 292 307 328 q 222 199 222 256 q 261 106 222 140 q 376 72 300 72 z "},"å":{"ha":833,"x_min":121,"x_max":697,"o":"m 361 -17 q 226 13 279 -17 q 147 90 172 42 q 121 196 121 139 q 201 358 121 304 q 403 411 281 411 l 600 411 l 600 424 q 553 570 600 521 q 421 619 507 619 q 302 588 349 619 q 243 490 256 557 l 140 490 q 187 608 147 560 q 288 681 226 656 q 421 706 349 706 q 631 627 565 706 q 697 424 697 549 l 697 0 l 614 0 l 604 111 l 596 111 q 511 22 565 60 q 361 -17 457 -17 m 376 72 q 496 107 446 72 q 573 197 546 142 q 600 314 600 253 l 600 328 l 410 328 q 265 292 307 328 q 222 199 222 256 q 261 106 222 140 q 376 72 300 72 z "},"ã":{"ha":833,"x_min":121,"x_max":697,"o":"m 361 -17 q 226 13 279 -17 q 147 90 172 42 q 121 196 121 139 q 201 358 121 304 q 403 411 281 411 l 600 411 l 600 424 q 553 570 600 521 q 421 619 507 619 q 302 588 349 619 q 243 490 256 557 l 140 490 q 187 608 147 560 q 288 681 226 656 q 421 706 349 706 q 631 627 565 706 q 697 424 697 549 l 697 0 l 614 0 l 604 111 l 596 111 q 511 22 565 60 q 361 -17 457 -17 m 376 72 q 496 107 446 72 q 573 197 546 142 q 600 314 600 253 l 600 328 l 410 328 q 265 292 307 328 q 222 199 222 256 q 261 106 222 140 q 376 72 300 72 z "},"æ":{"ha":833,"x_min":29,"x_max":813,"o":"m 219 -17 q 116 11 158 -17 q 51 85 74 39 q 29 186 29 132 q 63 313 29 263 q 156 388 97 363 q 286 413 214 413 l 367 413 l 367 483 q 337 586 367 553 q 256 619 307 619 q 184 590 213 619 q 153 504 156 561 l 54 504 q 117 652 61 599 q 253 706 174 706 q 365 677 322 706 q 428 600 408 649 q 495 674 451 643 q 600 706 539 706 q 813 393 813 706 q 812 359 813 379 q 810 324 811 339 l 464 324 q 506 136 467 197 q 596 75 544 75 q 664 107 639 75 q 703 207 689 139 l 797 207 q 735 49 786 114 q 589 -17 683 -17 q 476 24 521 -17 q 415 117 432 65 l 411 117 q 333 17 389 51 q 219 -17 276 -17 m 465 413 l 717 413 q 684 563 714 510 q 596 617 654 617 q 504 563 536 617 q 465 413 472 508 m 232 72 q 328 116 289 72 q 367 244 367 160 l 367 324 l 290 324 q 169 287 207 324 q 131 189 131 250 q 156 103 131 135 q 232 72 182 72 z "},"ǽ":{"ha":833,"x_min":29,"x_max":813,"o":"m 219 -17 q 116 11 158 -17 q 51 85 74 39 q 29 186 29 132 q 63 313 29 263 q 156 388 97 363 q 286 413 214 413 l 367 413 l 367 483 q 337 586 367 553 q 256 619 307 619 q 184 590 213 619 q 153 504 156 561 l 54 504 q 117 652 61 599 q 253 706 174 706 q 365 677 322 706 q 428 600 408 649 q 495 674 451 643 q 600 706 539 706 q 813 393 813 706 q 812 359 813 379 q 810 324 811 339 l 464 324 q 506 136 467 197 q 596 75 544 75 q 664 107 639 75 q 703 207 689 139 l 797 207 q 735 49 786 114 q 589 -17 683 -17 q 476 24 521 -17 q 415 117 432 65 l 411 117 q 333 17 389 51 q 219 -17 276 -17 m 465 413 l 717 413 q 684 563 714 510 q 596 617 654 617 q 504 563 536 617 q 465 413 472 508 m 232 72 q 328 116 289 72 q 367 244 367 160 l 367 324 l 290 324 q 169 287 207 324 q 131 189 131 250 q 156 103 131 135 q 232 72 182 72 z "},"b":{"ha":833,"x_min":115,"x_max":736,"o":"m 432 -17 q 295 17 351 -17 q 213 108 239 51 l 204 108 l 190 0 l 115 0 l 115 1000 l 213 1000 l 213 583 q 297 669 240 632 q 432 706 354 706 q 590 664 522 706 q 697 542 658 622 q 736 346 736 461 q 697 149 736 231 q 590 26 658 68 q 432 -17 521 -17 m 425 75 q 578 142 518 75 q 638 344 638 208 q 578 547 638 481 q 425 614 518 614 q 272 547 332 614 q 213 344 213 481 q 272 142 213 208 q 425 75 332 75 z "},"c":{"ha":833,"x_min":108,"x_max":721,"o":"m 428 -17 q 267 26 339 -17 q 151 149 194 68 q 108 344 108 229 q 152 540 108 460 q 268 663 196 621 q 428 706 340 706 q 627 643 554 706 q 721 478 700 581 l 624 478 q 555 577 606 540 q 428 614 504 614 q 321 585 371 614 q 240 497 271 556 q 208 344 208 438 q 240 192 208 253 q 321 103 271 132 q 428 74 371 74 q 558 112 510 74 q 624 211 607 150 l 721 211 q 620 44 696 104 q 428 -17 544 -17 z "},"ć":{"ha":833,"x_min":108,"x_max":721,"o":"m 428 -17 q 267 26 339 -17 q 151 149 194 68 q 108 344 108 229 q 152 540 108 460 q 268 663 196 621 q 428 706 340 706 q 627 643 554 706 q 721 478 700 581 l 624 478 q 555 577 606 540 q 428 614 504 614 q 321 585 371 614 q 240 497 271 556 q 208 344 208 438 q 240 192 208 253 q 321 103 271 132 q 428 74 371 74 q 558 112 510 74 q 624 211 607 150 l 721 211 q 620 44 696 104 q 428 -17 544 -17 z "},"č":{"ha":833,"x_min":108,"x_max":721,"o":"m 428 -17 q 267 26 339 -17 q 151 149 194 68 q 108 344 108 229 q 152 540 108 460 q 268 663 196 621 q 428 706 340 706 q 627 643 554 706 q 721 478 700 581 l 624 478 q 555 577 606 540 q 428 614 504 614 q 321 585 371 614 q 240 497 271 556 q 208 344 208 438 q 240 192 208 253 q 321 103 271 132 q 428 74 371 74 q 558 112 510 74 q 624 211 607 150 l 721 211 q 620 44 696 104 q 428 -17 544 -17 z "},"ç":{"ha":833,"x_min":108,"x_max":721,"o":"m 428 -17 q 267 26 339 -17 q 151 149 194 68 q 108 344 108 229 q 152 540 108 460 q 268 663 196 621 q 428 706 340 706 q 627 643 554 706 q 721 478 700 581 l 624 478 q 555 577 606 540 q 428 614 504 614 q 321 585 371 614 q 240 497 271 556 q 208 344 208 438 q 240 192 208 253 q 321 103 271 132 q 428 74 371 74 q 558 112 510 74 q 624 211 607 150 l 721 211 q 620 44 696 104 q 428 -17 544 -17 z "},"ċ":{"ha":833,"x_min":108,"x_max":721,"o":"m 428 -17 q 267 26 339 -17 q 151 149 194 68 q 108 344 108 229 q 152 540 108 460 q 268 663 196 621 q 428 706 340 706 q 627 643 554 706 q 721 478 700 581 l 624 478 q 555 577 606 540 q 428 614 504 614 q 321 585 371 614 q 240 497 271 556 q 208 344 208 438 q 240 192 208 253 q 321 103 271 132 q 428 74 371 74 q 558 112 510 74 q 624 211 607 150 l 721 211 q 620 44 696 104 q 428 -17 544 -17 z "},"d":{"ha":833,"x_min":97,"x_max":718,"o":"m 401 -17 q 244 26 313 -17 q 136 149 175 68 q 97 346 97 231 q 136 542 97 461 q 244 664 175 622 q 401 706 313 706 q 540 672 486 706 q 621 583 594 639 l 621 1000 l 718 1000 l 718 0 l 643 0 l 629 110 l 621 110 q 538 17 594 51 q 401 -17 482 -17 m 408 75 q 561 142 501 75 q 621 344 621 208 q 561 547 621 481 q 408 614 501 614 q 256 547 315 614 q 196 344 196 481 q 256 142 196 208 q 408 75 315 75 z "},"ð":{"ha":833,"x_min":89,"x_max":767,"o":"m 425 -17 q 249 32 325 -17 q 131 163 174 81 q 89 343 89 244 q 133 531 89 449 q 251 659 176 613 q 419 706 326 706 q 551 678 489 706 q 654 582 613 650 l 660 582 q 595 719 631 658 q 506 838 560 779 l 282 764 l 282 842 l 446 896 q 319 1000 394 942 l 449 1000 q 539 926 497 965 l 714 983 l 714 906 l 594 867 q 723 643 679 767 q 767 369 767 519 q 726 169 767 257 q 608 33 685 82 q 425 -17 532 -17 m 428 72 q 546 106 492 72 q 634 201 600 139 q 668 346 668 263 q 634 490 668 429 q 546 583 600 550 q 428 617 492 617 q 310 583 365 617 q 222 490 256 550 q 188 346 188 429 q 222 201 188 263 q 310 106 256 139 q 428 72 365 72 z "},"ď":{"ha":833,"x_min":28,"x_max":908,"o":"m 332 -17 q 174 26 243 -17 q 67 149 106 68 q 28 346 28 231 q 67 542 28 461 q 174 664 106 622 q 332 706 243 706 q 471 672 417 706 q 551 583 525 639 l 551 1000 l 649 1000 l 649 0 l 574 0 l 560 110 l 551 110 q 469 17 525 51 q 332 -17 413 -17 m 339 75 q 492 142 432 75 q 551 344 551 208 q 492 547 551 481 q 339 614 432 614 q 186 547 246 614 q 126 344 126 481 q 186 142 126 208 q 339 75 246 75 m 718 689 l 788 1000 l 908 1000 l 806 689 l 718 689 z "},"đ":{"ha":833,"x_min":97,"x_max":810,"o":"m 401 -17 q 244 26 313 -17 q 136 149 175 68 q 97 346 97 231 q 136 542 97 461 q 244 664 175 622 q 401 706 313 706 q 540 672 486 706 q 621 583 594 639 l 621 825 l 378 825 l 378 908 l 621 908 l 621 1000 l 718 1000 l 718 908 l 810 908 l 810 825 l 718 825 l 718 0 l 643 0 l 629 110 l 621 110 q 538 17 594 51 q 401 -17 482 -17 m 408 75 q 561 142 501 75 q 621 344 621 208 q 561 547 621 481 q 408 614 501 614 q 256 547 315 614 q 196 344 196 481 q 256 142 196 208 q 408 75 315 75 z "},"e":{"ha":833,"x_min":96,"x_max":738,"o":"m 424 -17 q 254 28 328 -17 q 138 155 181 74 q 96 346 96 236 q 138 536 96 456 q 253 661 179 617 q 426 706 328 706 q 596 660 526 706 q 701 543 665 615 q 738 388 738 471 q 738 358 738 374 q 736 324 738 343 l 190 324 q 228 184 194 239 q 315 102 263 129 q 424 75 367 75 q 555 110 508 75 q 624 207 601 146 l 718 207 q 623 49 696 114 q 424 -17 550 -17 m 422 617 q 269 563 335 617 q 192 413 203 508 l 643 413 q 577 563 638 510 q 422 617 517 617 z "},"é":{"ha":833,"x_min":96,"x_max":738,"o":"m 424 -17 q 254 28 328 -17 q 138 155 181 74 q 96 346 96 236 q 138 536 96 456 q 253 661 179 617 q 426 706 328 706 q 596 660 526 706 q 701 543 665 615 q 738 388 738 471 q 738 358 738 374 q 736 324 738 343 l 190 324 q 228 184 194 239 q 315 102 263 129 q 424 75 367 75 q 555 110 508 75 q 624 207 601 146 l 718 207 q 623 49 696 114 q 424 -17 550 -17 m 422 617 q 269 563 335 617 q 192 413 203 508 l 643 413 q 577 563 638 510 q 422 617 517 617 z "},"ĕ":{"ha":833,"x_min":96,"x_max":738,"o":"m 424 -17 q 254 28 328 -17 q 138 155 181 74 q 96 346 96 236 q 138 536 96 456 q 253 661 179 617 q 426 706 328 706 q 596 660 526 706 q 701 543 665 615 q 738 388 738 471 q 738 358 738 374 q 736 324 738 343 l 190 324 q 228 184 194 239 q 315 102 263 129 q 424 75 367 75 q 555 110 508 75 q 624 207 601 146 l 718 207 q 623 49 696 114 q 424 -17 550 -17 m 422 617 q 269 563 335 617 q 192 413 203 508 l 643 413 q 577 563 638 510 q 422 617 517 617 z "},"ě":{"ha":833,"x_min":96,"x_max":738,"o":"m 424 -17 q 254 28 328 -17 q 138 155 181 74 q 96 346 96 236 q 138 536 96 456 q 253 661 179 617 q 426 706 328 706 q 596 660 526 706 q 701 543 665 615 q 738 388 738 471 q 738 358 738 374 q 736 324 738 343 l 190 324 q 228 184 194 239 q 315 102 263 129 q 424 75 367 75 q 555 110 508 75 q 624 207 601 146 l 718 207 q 623 49 696 114 q 424 -17 550 -17 m 422 617 q 269 563 335 617 q 192 413 203 508 l 643 413 q 577 563 638 510 q 422 617 517 617 z "},"ê":{"ha":833,"x_min":96,"x_max":738,"o":"m 424 -17 q 254 28 328 -17 q 138 155 181 74 q 96 346 96 236 q 138 536 96 456 q 253 661 179 617 q 426 706 328 706 q 596 660 526 706 q 701 543 665 615 q 738 388 738 471 q 738 358 738 374 q 736 324 738 343 l 190 324 q 228 184 194 239 q 315 102 263 129 q 424 75 367 75 q 555 110 508 75 q 624 207 601 146 l 718 207 q 623 49 696 114 q 424 -17 550 -17 m 422 617 q 269 563 335 617 q 192 413 203 508 l 643 413 q 577 563 638 510 q 422 617 517 617 z "},"ë":{"ha":833,"x_min":96,"x_max":738,"o":"m 424 -17 q 254 28 328 -17 q 138 155 181 74 q 96 346 96 236 q 138 536 96 456 q 253 661 179 617 q 426 706 328 706 q 596 660 526 706 q 701 543 665 615 q 738 388 738 471 q 738 358 738 374 q 736 324 738 343 l 190 324 q 228 184 194 239 q 315 102 263 129 q 424 75 367 75 q 555 110 508 75 q 624 207 601 146 l 718 207 q 623 49 696 114 q 424 -17 550 -17 m 422 617 q 269 563 335 617 q 192 413 203 508 l 643 413 q 577 563 638 510 q 422 617 517 617 z "},"ė":{"ha":833,"x_min":96,"x_max":738,"o":"m 424 -17 q 254 28 328 -17 q 138 155 181 74 q 96 346 96 236 q 138 536 96 456 q 253 661 179 617 q 426 706 328 706 q 596 660 526 706 q 701 543 665 615 q 738 388 738 471 q 738 358 738 374 q 736 324 738 343 l 190 324 q 228 184 194 239 q 315 102 263 129 q 424 75 367 75 q 555 110 508 75 q 624 207 601 146 l 718 207 q 623 49 696 114 q 424 -17 550 -17 m 422 617 q 269 563 335 617 q 192 413 203 508 l 643 413 q 577 563 638 510 q 422 617 517 617 z "},"è":{"ha":833,"x_min":96,"x_max":738,"o":"m 424 -17 q 254 28 328 -17 q 138 155 181 74 q 96 346 96 236 q 138 536 96 456 q 253 661 179 617 q 426 706 328 706 q 596 660 526 706 q 701 543 665 615 q 738 388 738 471 q 738 358 738 374 q 736 324 738 343 l 190 324 q 228 184 194 239 q 315 102 263 129 q 424 75 367 75 q 555 110 508 75 q 624 207 601 146 l 718 207 q 623 49 696 114 q 424 -17 550 -17 m 422 617 q 269 563 335 617 q 192 413 203 508 l 643 413 q 577 563 638 510 q 422 617 517 617 z "},"ē":{"ha":833,"x_min":96,"x_max":738,"o":"m 424 -17 q 254 28 328 -17 q 138 155 181 74 q 96 346 96 236 q 138 536 96 456 q 253 661 179 617 q 426 706 328 706 q 596 660 526 706 q 701 543 665 615 q 738 388 738 471 q 738 358 738 374 q 736 324 738 343 l 190 324 q 228 184 194 239 q 315 102 263 129 q 424 75 367 75 q 555 110 508 75 q 624 207 601 146 l 718 207 q 623 49 696 114 q 424 -17 550 -17 m 422 617 q 269 563 335 617 q 192 413 203 508 l 643 413 q 577 563 638 510 q 422 617 517 617 z "},"ę":{"ha":833,"x_min":96,"x_max":738,"o":"m 424 -17 q 254 28 328 -17 q 138 155 181 74 q 96 346 96 236 q 138 536 96 456 q 253 661 179 617 q 426 706 328 706 q 596 660 526 706 q 701 543 665 615 q 738 388 738 471 q 738 358 738 374 q 736 324 738 343 l 190 324 q 228 184 194 239 q 315 102 263 129 q 424 75 367 75 q 555 110 508 75 q 624 207 601 146 l 718 207 q 623 49 696 114 q 424 -17 550 -17 m 422 617 q 269 563 335 617 q 192 413 203 508 l 643 413 q 577 563 638 510 q 422 617 517 617 z "},"ẽ":{"ha":833,"x_min":96,"x_max":738,"o":"m 424 -17 q 254 28 328 -17 q 138 155 181 74 q 96 346 96 236 q 138 536 96 456 q 253 661 179 617 q 426 706 328 706 q 596 660 526 706 q 701 543 665 615 q 738 388 738 471 q 738 358 738 374 q 736 324 738 343 l 190 324 q 228 184 194 239 q 315 102 263 129 q 424 75 367 75 q 555 110 508 75 q 624 207 601 146 l 718 207 q 623 49 696 114 q 424 -17 550 -17 m 422 617 q 269 563 335 617 q 192 413 203 508 l 643 413 q 577 563 638 510 q 422 617 517 617 z "},"ə":{"ha":833,"x_min":96,"x_max":738,"o":"m 407 -17 q 238 28 307 -17 q 132 147 168 74 q 96 301 96 219 q 96 331 96 317 q 97 365 96 346 l 643 365 q 605 505 639 450 q 519 587 571 560 q 410 614 467 614 q 279 578 325 614 q 210 482 233 543 l 115 482 q 210 641 138 576 q 410 706 283 706 q 580 660 506 706 q 696 534 654 615 q 738 343 738 453 q 696 153 738 233 q 580 28 654 72 q 407 -17 506 -17 m 411 72 q 565 126 499 72 q 642 276 631 181 l 190 276 q 256 126 196 179 q 411 72 317 72 z "},"f":{"ha":833,"x_min":149,"x_max":679,"o":"m 149 -306 l 149 -214 l 215 -214 q 293 -192 269 -214 q 317 -114 317 -169 l 317 606 l 149 606 l 149 689 l 317 689 l 317 808 q 365 955 317 910 q 514 1000 413 1000 l 679 1000 l 679 908 l 515 908 q 438 886 461 908 q 414 808 414 864 l 414 689 l 679 689 l 679 606 l 414 606 l 414 -114 q 367 -260 414 -215 q 217 -306 319 -306 l 149 -306 z "},"g":{"ha":833,"x_min":92,"x_max":765,"o":"m 406 206 q 331 214 365 206 q 269 236 297 222 l 215 168 q 208 126 200 147 q 249 106 215 106 l 431 106 q 633 60 556 106 q 711 -92 711 15 q 680 -204 711 -151 q 582 -290 649 -257 q 408 -322 515 -322 q 178 -268 264 -322 q 92 -103 92 -214 q 113 -26 92 -60 q 165 35 133 8 q 113 108 124 58 q 142 206 103 157 l 206 285 q 139 456 139 354 q 170 579 139 522 q 261 671 201 636 q 406 706 321 706 q 508 689 461 706 l 765 689 l 765 608 l 629 604 l 629 596 q 671 456 671 535 q 640 333 671 390 q 549 240 608 275 q 406 206 490 206 m 406 294 q 526 337 479 294 q 572 456 572 379 q 526 575 572 533 q 406 617 479 617 q 285 575 333 617 q 238 456 238 533 q 285 337 238 379 q 406 294 333 294 m 192 -103 q 251 -200 192 -167 q 408 -233 311 -233 q 553 -195 496 -233 q 611 -96 611 -157 q 594 -38 611 -64 q 534 3 576 -12 q 415 19 492 19 l 260 19 q 192 -103 192 -26 z "},"ğ":{"ha":833,"x_min":92,"x_max":765,"o":"m 406 206 q 331 214 365 206 q 269 236 297 222 l 215 168 q 208 126 200 147 q 249 106 215 106 l 431 106 q 633 60 556 106 q 711 -92 711 15 q 680 -204 711 -151 q 582 -290 649 -257 q 408 -322 515 -322 q 178 -268 264 -322 q 92 -103 92 -214 q 113 -26 92 -60 q 165 35 133 8 q 113 108 124 58 q 142 206 103 157 l 206 285 q 139 456 139 354 q 170 579 139 522 q 261 671 201 636 q 406 706 321 706 q 508 689 461 706 l 765 689 l 765 608 l 629 604 l 629 596 q 671 456 671 535 q 640 333 671 390 q 549 240 608 275 q 406 206 490 206 m 406 294 q 526 337 479 294 q 572 456 572 379 q 526 575 572 533 q 406 617 479 617 q 285 575 333 617 q 238 456 238 533 q 285 337 238 379 q 406 294 333 294 m 192 -103 q 251 -200 192 -167 q 408 -233 311 -233 q 553 -195 496 -233 q 611 -96 611 -157 q 594 -38 611 -64 q 534 3 576 -12 q 415 19 492 19 l 260 19 q 192 -103 192 -26 z "},"ģ":{"ha":833,"x_min":92,"x_max":765,"o":"m 406 206 q 331 214 365 206 q 269 236 297 222 l 215 168 q 208 126 200 147 q 249 106 215 106 l 431 106 q 633 60 556 106 q 711 -92 711 15 q 680 -204 711 -151 q 582 -290 649 -257 q 408 -322 515 -322 q 178 -268 264 -322 q 92 -103 92 -214 q 113 -26 92 -60 q 165 35 133 8 q 113 108 124 58 q 142 206 103 157 l 206 285 q 139 456 139 354 q 170 579 139 522 q 261 671 201 636 q 406 706 321 706 q 508 689 461 706 l 765 689 l 765 608 l 629 604 l 629 596 q 671 456 671 535 q 640 333 671 390 q 549 240 608 275 q 406 206 490 206 m 406 294 q 526 337 479 294 q 572 456 572 379 q 526 575 572 533 q 406 617 479 617 q 285 575 333 617 q 238 456 238 533 q 285 337 238 379 q 406 294 333 294 m 192 -103 q 251 -200 192 -167 q 408 -233 311 -233 q 553 -195 496 -233 q 611 -96 611 -157 q 594 -38 611 -64 q 534 3 576 -12 q 415 19 492 19 l 260 19 q 192 -103 192 -26 m 335 783 l 453 1044 l 543 1044 l 463 783 l 335 783 z "},"ġ":{"ha":833,"x_min":92,"x_max":765,"o":"m 406 206 q 331 214 365 206 q 269 236 297 222 l 215 168 q 208 126 200 147 q 249 106 215 106 l 431 106 q 633 60 556 106 q 711 -92 711 15 q 680 -204 711 -151 q 582 -290 649 -257 q 408 -322 515 -322 q 178 -268 264 -322 q 92 -103 92 -214 q 113 -26 92 -60 q 165 35 133 8 q 113 108 124 58 q 142 206 103 157 l 206 285 q 139 456 139 354 q 170 579 139 522 q 261 671 201 636 q 406 706 321 706 q 508 689 461 706 l 765 689 l 765 608 l 629 604 l 629 596 q 671 456 671 535 q 640 333 671 390 q 549 240 608 275 q 406 206 490 206 m 406 294 q 526 337 479 294 q 572 456 572 379 q 526 575 572 533 q 406 617 479 617 q 285 575 333 617 q 238 456 238 533 q 285 337 238 379 q 406 294 333 294 m 192 -103 q 251 -200 192 -167 q 408 -233 311 -233 q 553 -195 496 -233 q 611 -96 611 -157 q 594 -38 611 -64 q 534 3 576 -12 q 415 19 492 19 l 260 19 q 192 -103 192 -26 z "},"h":{"ha":833,"x_min":125,"x_max":714,"o":"m 125 0 l 125 1000 l 222 1000 l 222 585 q 315 672 250 638 q 457 706 381 706 q 649 629 583 706 q 714 421 714 553 l 714 0 l 617 0 l 617 410 q 569 560 617 506 q 436 614 522 614 q 330 588 379 614 q 251 510 281 561 q 222 385 222 460 l 222 0 l 125 0 z "},"i":{"ha":833,"x_min":146,"x_max":688,"o":"m 411 822 q 351 848 376 822 q 325 908 325 874 q 351 969 325 944 q 411 994 376 994 q 472 969 447 994 q 497 908 497 944 q 472 848 497 874 q 411 822 447 822 m 146 0 l 146 83 l 368 83 l 368 578 q 340 606 368 606 l 174 606 l 174 689 l 368 689 q 465 592 465 689 l 465 83 l 688 83 l 688 0 l 146 0 z "},"ı":{"ha":833,"x_min":146,"x_max":688,"o":"m 146 0 l 146 83 l 368 83 l 368 578 q 340 606 368 606 l 174 606 l 174 689 l 368 689 q 465 592 465 689 l 465 83 l 688 83 l 688 0 l 146 0 z "},"í":{"ha":833,"x_min":146,"x_max":688,"o":"m 146 0 l 146 83 l 368 83 l 368 578 q 340 606 368 606 l 174 606 l 174 689 l 368 689 q 465 592 465 689 l 465 83 l 688 83 l 688 0 l 146 0 z "},"ĭ":{"ha":833,"x_min":146,"x_max":688,"o":"m 146 0 l 146 83 l 368 83 l 368 578 q 340 606 368 606 l 174 606 l 174 689 l 368 689 q 465 592 465 689 l 465 83 l 688 83 l 688 0 l 146 0 z "},"î":{"ha":833,"x_min":146,"x_max":688,"o":"m 146 0 l 146 83 l 368 83 l 368 578 q 340 606 368 606 l 174 606 l 174 689 l 368 689 q 465 592 465 689 l 465 83 l 688 83 l 688 0 l 146 0 z "},"ï":{"ha":833,"x_min":146,"x_max":688,"o":"m 146 0 l 146 83 l 368 83 l 368 578 q 340 606 368 606 l 174 606 l 174 689 l 368 689 q 465 592 465 689 l 465 83 l 688 83 l 688 0 l 146 0 z "},"ì":{"ha":833,"x_min":146,"x_max":688,"o":"m 146 0 l 146 83 l 368 83 l 368 578 q 340 606 368 606 l 174 606 l 174 689 l 368 689 q 465 592 465 689 l 465 83 l 688 83 l 688 0 l 146 0 z "},"ī":{"ha":833,"x_min":146,"x_max":688,"o":"m 146 0 l 146 83 l 368 83 l 368 578 q 340 606 368 606 l 174 606 l 174 689 l 368 689 q 465 592 465 689 l 465 83 l 688 83 l 688 0 l 146 0 z "},"į":{"ha":833,"x_min":146,"x_max":692,"o":"m 146 0 l 146 83 l 368 83 l 368 578 q 340 606 368 606 l 174 606 l 174 689 l 368 689 q 465 592 465 689 l 465 83 l 688 83 l 688 0 l 146 0 z "},"ĩ":{"ha":833,"x_min":146,"x_max":688,"o":"m 146 0 l 146 83 l 368 83 l 368 578 q 340 606 368 606 l 174 606 l 174 689 l 368 689 q 465 592 465 689 l 465 83 l 688 83 l 688 0 l 146 0 z "},"j":{"ha":833,"x_min":89,"x_max":524,"o":"m 438 822 q 377 848 403 822 q 351 908 351 874 q 377 969 351 944 q 438 994 403 994 q 499 969 474 994 q 524 908 524 944 q 499 848 524 874 q 438 822 474 822 m 89 -306 l 89 -222 l 367 -222 q 394 -194 394 -222 l 394 578 q 367 606 394 606 l 200 606 l 200 689 l 394 689 q 492 592 492 689 l 492 -208 q 394 -306 492 -306 l 89 -306 z "},"k":{"ha":833,"x_min":167,"x_max":728,"o":"m 167 0 l 167 1000 l 264 1000 l 264 396 l 565 689 l 690 689 l 372 382 l 372 374 l 728 0 l 607 0 l 264 361 l 264 0 l 167 0 z "},"ķ":{"ha":833,"x_min":167,"x_max":728,"o":"m 167 0 l 167 1000 l 264 1000 l 264 396 l 565 689 l 690 689 l 372 382 l 372 374 l 728 0 l 607 0 l 264 361 l 264 0 l 167 0 m 279 -356 l 360 -94 l 488 -94 l 369 -356 l 279 -356 z "},"l":{"ha":833,"x_min":111,"x_max":681,"o":"m 111 0 l 111 83 l 347 83 l 347 889 q 319 917 347 917 l 139 917 l 139 1000 l 347 1000 q 444 903 444 1000 l 444 83 l 681 83 l 681 0 l 111 0 z "},"ĺ":{"ha":833,"x_min":111,"x_max":681,"o":"m 111 0 l 111 83 l 347 83 l 347 889 q 319 917 347 917 l 139 917 l 139 1000 l 347 1000 q 444 903 444 1000 l 444 83 l 681 83 l 681 0 l 111 0 z "},"ľ":{"ha":833,"x_min":111,"x_max":796,"o":"m 111 0 l 111 83 l 347 83 l 347 889 q 319 917 347 917 l 139 917 l 139 1000 l 347 1000 q 444 903 444 1000 l 444 83 l 681 83 l 681 0 l 111 0 m 606 689 l 675 1000 l 796 1000 l 693 689 l 606 689 z "},"ļ":{"ha":833,"x_min":111,"x_max":681,"o":"m 111 0 l 111 83 l 347 83 l 347 889 q 319 917 347 917 l 139 917 l 139 1000 l 347 1000 q 444 903 444 1000 l 444 83 l 681 83 l 681 0 l 111 0 m 279 -356 l 360 -94 l 488 -94 l 369 -356 l 279 -356 z "},"ŀ":{"ha":833,"x_min":111,"x_max":904,"o":"m 111 0 l 111 83 l 347 83 l 347 889 q 319 917 347 917 l 139 917 l 139 1000 l 347 1000 q 444 903 444 1000 l 444 83 l 681 83 l 681 0 l 111 0 z "},"ł":{"ha":833,"x_min":111,"x_max":681,"o":"m 111 0 l 111 83 l 347 83 l 347 449 l 200 385 l 200 471 l 347 535 l 347 889 q 319 917 347 917 l 139 917 l 139 1000 l 347 1000 q 444 903 444 1000 l 444 576 l 590 640 l 590 554 l 444 490 l 444 83 l 681 83 l 681 0 l 111 0 z "},"m":{"ha":833,"x_min":63,"x_max":771,"o":"m 63 0 l 63 689 l 142 689 l 154 608 l 160 608 q 215 677 179 649 q 304 706 251 706 q 395 679 360 706 q 449 608 431 653 l 453 608 q 513 677 472 649 q 610 706 554 706 q 731 651 692 706 q 771 507 771 596 l 771 0 l 674 0 l 674 496 q 653 583 674 551 q 582 614 632 614 q 499 576 532 614 q 465 468 465 539 l 465 0 l 368 0 l 368 496 q 347 583 368 551 q 276 614 326 614 q 193 576 226 614 q 160 468 160 539 l 160 0 l 63 0 z "},"n":{"ha":833,"x_min":131,"x_max":708,"o":"m 131 0 l 131 689 l 210 689 l 222 585 l 228 585 q 316 669 256 633 q 457 706 376 706 q 646 631 583 706 q 708 421 708 557 l 708 0 l 611 0 l 611 410 q 568 560 611 506 q 436 614 525 614 q 289 555 350 614 q 228 385 228 496 l 228 0 l 131 0 z "},"ń":{"ha":833,"x_min":131,"x_max":708,"o":"m 131 0 l 131 689 l 210 689 l 222 585 l 228 585 q 316 669 256 633 q 457 706 376 706 q 646 631 583 706 q 708 421 708 557 l 708 0 l 611 0 l 611 410 q 568 560 611 506 q 436 614 525 614 q 289 555 350 614 q 228 385 228 496 l 228 0 l 131 0 z "},"ň":{"ha":833,"x_min":131,"x_max":708,"o":"m 131 0 l 131 689 l 210 689 l 222 585 l 228 585 q 316 669 256 633 q 457 706 376 706 q 646 631 583 706 q 708 421 708 557 l 708 0 l 611 0 l 611 410 q 568 560 611 506 q 436 614 525 614 q 289 555 350 614 q 228 385 228 496 l 228 0 l 131 0 z "},"ņ":{"ha":833,"x_min":131,"x_max":708,"o":"m 131 0 l 131 689 l 210 689 l 222 585 l 228 585 q 316 669 256 633 q 457 706 376 706 q 646 631 583 706 q 708 421 708 557 l 708 0 l 611 0 l 611 410 q 568 560 611 506 q 436 614 525 614 q 289 555 350 614 q 228 385 228 496 l 228 0 l 131 0 m 282 -356 l 363 -94 l 490 -94 l 372 -356 l 282 -356 z "},"ñ":{"ha":833,"x_min":131,"x_max":708,"o":"m 131 0 l 131 689 l 210 689 l 222 585 l 228 585 q 316 669 256 633 q 457 706 376 706 q 646 631 583 706 q 708 421 708 557 l 708 0 l 611 0 l 611 410 q 568 560 611 506 q 436 614 525 614 q 289 555 350 614 q 228 385 228 496 l 228 0 l 131 0 z "},"o":{"ha":833,"x_min":90,"x_max":743,"o":"m 417 -17 q 247 28 321 -17 q 132 153 174 72 q 90 344 90 235 q 132 536 90 456 q 247 661 174 617 q 417 706 321 706 q 586 661 513 706 q 701 536 660 617 q 743 344 743 456 q 701 153 743 235 q 586 28 660 72 q 417 -17 513 -17 m 417 75 q 531 104 481 75 q 613 193 582 133 q 643 344 643 253 q 613 497 643 438 q 531 585 582 556 q 417 614 481 614 q 303 585 354 614 q 221 497 251 556 q 190 344 190 438 q 221 193 190 253 q 303 104 251 133 q 417 75 354 75 z "},"ó":{"ha":833,"x_min":90,"x_max":743,"o":"m 417 -17 q 247 28 321 -17 q 132 153 174 72 q 90 344 90 235 q 132 536 90 456 q 247 661 174 617 q 417 706 321 706 q 586 661 513 706 q 701 536 660 617 q 743 344 743 456 q 701 153 743 235 q 586 28 660 72 q 417 -17 513 -17 m 417 75 q 531 104 481 75 q 613 193 582 133 q 643 344 643 253 q 613 497 643 438 q 531 585 582 556 q 417 614 481 614 q 303 585 354 614 q 221 497 251 556 q 190 344 190 438 q 221 193 190 253 q 303 104 251 133 q 417 75 354 75 z "},"ŏ":{"ha":833,"x_min":90,"x_max":743,"o":"m 417 -17 q 247 28 321 -17 q 132 153 174 72 q 90 344 90 235 q 132 536 90 456 q 247 661 174 617 q 417 706 321 706 q 586 661 513 706 q 701 536 660 617 q 743 344 743 456 q 701 153 743 235 q 586 28 660 72 q 417 -17 513 -17 m 417 75 q 531 104 481 75 q 613 193 582 133 q 643 344 643 253 q 613 497 643 438 q 531 585 582 556 q 417 614 481 614 q 303 585 354 614 q 221 497 251 556 q 190 344 190 438 q 221 193 190 253 q 303 104 251 133 q 417 75 354 75 z "},"ô":{"ha":833,"x_min":90,"x_max":743,"o":"m 417 -17 q 247 28 321 -17 q 132 153 174 72 q 90 344 90 235 q 132 536 90 456 q 247 661 174 617 q 417 706 321 706 q 586 661 513 706 q 701 536 660 617 q 743 344 743 456 q 701 153 743 235 q 586 28 660 72 q 417 -17 513 -17 m 417 75 q 531 104 481 75 q 613 193 582 133 q 643 344 643 253 q 613 497 643 438 q 531 585 582 556 q 417 614 481 614 q 303 585 354 614 q 221 497 251 556 q 190 344 190 438 q 221 193 190 253 q 303 104 251 133 q 417 75 354 75 z "},"ö":{"ha":833,"x_min":90,"x_max":743,"o":"m 417 -17 q 247 28 321 -17 q 132 153 174 72 q 90 344 90 235 q 132 536 90 456 q 247 661 174 617 q 417 706 321 706 q 586 661 513 706 q 701 536 660 617 q 743 344 743 456 q 701 153 743 235 q 586 28 660 72 q 417 -17 513 -17 m 417 75 q 531 104 481 75 q 613 193 582 133 q 643 344 643 253 q 613 497 643 438 q 531 585 582 556 q 417 614 481 614 q 303 585 354 614 q 221 497 251 556 q 190 344 190 438 q 221 193 190 253 q 303 104 251 133 q 417 75 354 75 z "},"ò":{"ha":833,"x_min":90,"x_max":743,"o":"m 417 -17 q 247 28 321 -17 q 132 153 174 72 q 90 344 90 235 q 132 536 90 456 q 247 661 174 617 q 417 706 321 706 q 586 661 513 706 q 701 536 660 617 q 743 344 743 456 q 701 153 743 235 q 586 28 660 72 q 417 -17 513 -17 m 417 75 q 531 104 481 75 q 613 193 582 133 q 643 344 643 253 q 613 497 643 438 q 531 585 582 556 q 417 614 481 614 q 303 585 354 614 q 221 497 251 556 q 190 344 190 438 q 221 193 190 253 q 303 104 251 133 q 417 75 354 75 z "},"ő":{"ha":833,"x_min":90,"x_max":743,"o":"m 417 -17 q 247 28 321 -17 q 132 153 174 72 q 90 344 90 235 q 132 536 90 456 q 247 661 174 617 q 417 706 321 706 q 586 661 513 706 q 701 536 660 617 q 743 344 743 456 q 701 153 743 235 q 586 28 660 72 q 417 -17 513 -17 m 417 75 q 531 104 481 75 q 613 193 582 133 q 643 344 643 253 q 613 497 643 438 q 531 585 582 556 q 417 614 481 614 q 303 585 354 614 q 221 497 251 556 q 190 344 190 438 q 221 193 190 253 q 303 104 251 133 q 417 75 354 75 z "},"ō":{"ha":833,"x_min":90,"x_max":743,"o":"m 417 -17 q 247 28 321 -17 q 132 153 174 72 q 90 344 90 235 q 132 536 90 456 q 247 661 174 617 q 417 706 321 706 q 586 661 513 706 q 701 536 660 617 q 743 344 743 456 q 701 153 743 235 q 586 28 660 72 q 417 -17 513 -17 m 417 75 q 531 104 481 75 q 613 193 582 133 q 643 344 643 253 q 613 497 643 438 q 531 585 582 556 q 417 614 481 614 q 303 585 354 614 q 221 497 251 556 q 190 344 190 438 q 221 193 190 253 q 303 104 251 133 q 417 75 354 75 z "},"ø":{"ha":833,"x_min":65,"x_max":765,"o":"m 65 -28 l 167 99 q 110 208 131 146 q 90 344 90 269 q 132 536 90 456 q 247 661 174 617 q 417 706 321 706 q 604 650 524 706 l 657 717 l 765 717 l 665 592 q 723 482 703 544 q 743 344 743 419 q 701 153 743 235 q 586 28 660 72 q 417 -17 513 -17 q 229 40 308 -17 l 175 -28 l 65 -28 m 190 344 q 201 251 190 293 q 229 178 211 210 l 546 576 q 417 614 492 614 q 303 585 354 614 q 221 497 251 556 q 190 344 190 438 m 417 75 q 531 104 481 75 q 613 192 582 133 q 643 344 643 251 q 633 439 643 397 q 604 513 622 481 l 288 114 q 417 75 342 75 z "},"õ":{"ha":833,"x_min":90,"x_max":743,"o":"m 417 -17 q 247 28 321 -17 q 132 153 174 72 q 90 344 90 235 q 132 536 90 456 q 247 661 174 617 q 417 706 321 706 q 586 661 513 706 q 701 536 660 617 q 743 344 743 456 q 701 153 743 235 q 586 28 660 72 q 417 -17 513 -17 m 417 75 q 531 104 481 75 q 613 193 582 133 q 643 344 643 253 q 613 497 643 438 q 531 585 582 556 q 417 614 481 614 q 303 585 354 614 q 221 497 251 556 q 190 344 190 438 q 221 193 190 253 q 303 104 251 133 q 417 75 354 75 z "},"œ":{"ha":833,"x_min":35,"x_max":797,"o":"m 247 -17 q 91 81 147 -17 q 35 344 35 179 q 91 608 35 510 q 247 706 147 706 q 353 676 304 706 q 424 572 401 647 q 492 669 443 633 q 603 706 542 706 q 747 626 696 706 q 797 406 797 546 q 797 368 797 388 q 796 324 797 349 l 472 324 q 508 136 475 197 q 594 75 542 75 q 656 110 632 75 q 692 207 681 146 l 786 207 q 752 94 778 144 q 687 13 726 43 q 594 -17 647 -17 q 418 114 469 -17 q 247 -17 360 -17 m 593 617 q 513 563 547 617 q 474 413 479 508 l 703 413 q 671 563 701 510 q 593 617 640 617 m 256 75 q 344 140 313 75 q 376 344 376 206 q 344 549 376 483 q 256 614 313 614 q 167 549 200 614 q 135 344 135 483 q 167 140 135 206 q 256 75 200 75 z "},"p":{"ha":833,"x_min":115,"x_max":736,"o":"m 115 -306 l 115 689 l 190 689 l 204 569 l 213 569 q 299 667 239 628 q 439 706 358 706 q 592 663 525 706 q 697 540 658 621 q 736 343 736 458 q 697 147 736 228 q 590 25 658 67 q 432 -17 522 -17 q 293 20 350 -17 q 213 106 236 57 l 213 -306 l 115 -306 m 425 75 q 578 142 518 75 q 638 344 638 208 q 578 547 638 481 q 425 614 518 614 q 272 547 332 614 q 213 344 213 481 q 272 142 213 208 q 425 75 332 75 z "},"þ":{"ha":833,"x_min":115,"x_max":736,"o":"m 115 -306 l 115 1000 l 213 1000 l 213 569 q 299 667 239 628 q 439 706 358 706 q 592 663 525 706 q 697 540 658 621 q 736 343 736 458 q 697 147 736 228 q 590 25 658 67 q 432 -17 522 -17 q 293 20 350 -17 q 213 106 236 57 l 213 -306 l 115 -306 m 425 75 q 578 142 518 75 q 638 344 638 208 q 578 547 638 481 q 425 614 518 614 q 272 547 332 614 q 213 344 213 481 q 272 142 213 208 q 425 75 332 75 z "},"q":{"ha":833,"x_min":97,"x_max":718,"o":"m 621 -306 l 621 111 q 542 21 593 58 q 401 -17 490 -17 q 244 25 313 -17 q 136 147 175 67 q 97 343 97 228 q 136 540 97 458 q 242 663 175 621 q 394 706 310 706 q 535 669 478 706 q 621 578 593 633 l 629 578 l 643 689 l 718 689 l 718 -306 l 621 -306 m 408 75 q 561 142 501 75 q 621 344 621 208 q 561 547 621 481 q 408 614 501 614 q 256 547 315 614 q 196 344 196 481 q 256 142 196 208 q 408 75 315 75 z "},"r":{"ha":833,"x_min":122,"x_max":719,"o":"m 122 0 l 122 83 l 306 83 l 306 578 q 297 597 306 589 q 278 606 289 606 l 143 606 l 143 689 l 313 689 q 375 668 353 689 q 397 607 397 647 l 397 568 l 403 568 q 463 669 418 633 q 581 706 508 706 l 719 706 l 719 603 l 581 603 q 449 547 496 603 q 403 399 403 492 l 403 83 l 621 83 l 621 0 l 122 0 z "},"ŕ":{"ha":833,"x_min":122,"x_max":719,"o":"m 122 0 l 122 83 l 306 83 l 306 578 q 297 597 306 589 q 278 606 289 606 l 143 606 l 143 689 l 313 689 q 375 668 353 689 q 397 607 397 647 l 397 568 l 403 568 q 463 669 418 633 q 581 706 508 706 l 719 706 l 719 603 l 581 603 q 449 547 496 603 q 403 399 403 492 l 403 83 l 621 83 l 621 0 l 122 0 z "},"ř":{"ha":833,"x_min":122,"x_max":719,"o":"m 122 0 l 122 83 l 306 83 l 306 578 q 297 597 306 589 q 278 606 289 606 l 143 606 l 143 689 l 313 689 q 375 668 353 689 q 397 607 397 647 l 397 568 l 403 568 q 463 669 418 633 q 581 706 508 706 l 719 706 l 719 603 l 581 603 q 449 547 496 603 q 403 399 403 492 l 403 83 l 621 83 l 621 0 l 122 0 z "},"ŗ":{"ha":833,"x_min":122,"x_max":719,"o":"m 122 0 l 122 83 l 306 83 l 306 578 q 297 597 306 589 q 278 606 289 606 l 143 606 l 143 689 l 313 689 q 375 668 353 689 q 397 607 397 647 l 397 568 l 403 568 q 463 669 418 633 q 581 706 508 706 l 719 706 l 719 603 l 581 603 q 449 547 496 603 q 403 399 403 492 l 403 83 l 621 83 l 621 0 l 122 0 m 217 -356 l 297 -94 l 425 -94 l 307 -356 l 217 -356 z "},"s":{"ha":833,"x_min":122,"x_max":696,"o":"m 425 -17 q 214 44 296 -17 q 122 214 132 106 l 224 214 q 285 113 232 153 q 428 72 339 72 q 554 110 514 72 q 594 194 594 149 q 547 281 594 258 q 400 314 499 303 q 217 373 288 326 q 146 513 146 419 q 216 650 146 594 q 406 706 286 706 q 594 652 525 706 q 671 496 663 599 l 572 496 q 522 583 569 550 q 403 617 474 617 q 287 590 328 617 q 246 514 246 563 q 290 441 246 471 q 432 401 335 411 q 563 376 504 394 q 658 315 622 357 q 694 199 694 274 q 661 88 696 138 q 566 11 626 39 q 425 -17 506 -17 z "},"ś":{"ha":833,"x_min":122,"x_max":696,"o":"m 425 -17 q 214 44 296 -17 q 122 214 132 106 l 224 214 q 285 113 232 153 q 428 72 339 72 q 554 110 514 72 q 594 194 594 149 q 547 281 594 258 q 400 314 499 303 q 217 373 288 326 q 146 513 146 419 q 216 650 146 594 q 406 706 286 706 q 594 652 525 706 q 671 496 663 599 l 572 496 q 522 583 569 550 q 403 617 474 617 q 287 590 328 617 q 246 514 246 563 q 290 441 246 471 q 432 401 335 411 q 563 376 504 394 q 658 315 622 357 q 694 199 694 274 q 661 88 696 138 q 566 11 626 39 q 425 -17 506 -17 z "},"š":{"ha":833,"x_min":122,"x_max":696,"o":"m 425 -17 q 214 44 296 -17 q 122 214 132 106 l 224 214 q 285 113 232 153 q 428 72 339 72 q 554 110 514 72 q 594 194 594 149 q 547 281 594 258 q 400 314 499 303 q 217 373 288 326 q 146 513 146 419 q 216 650 146 594 q 406 706 286 706 q 594 652 525 706 q 671 496 663 599 l 572 496 q 522 583 569 550 q 403 617 474 617 q 287 590 328 617 q 246 514 246 563 q 290 441 246 471 q 432 401 335 411 q 563 376 504 394 q 658 315 622 357 q 694 199 694 274 q 661 88 696 138 q 566 11 626 39 q 425 -17 506 -17 z "},"ş":{"ha":833,"x_min":122,"x_max":696,"o":"m 425 -17 q 214 44 296 -17 q 122 214 132 106 l 224 214 q 285 113 232 153 q 428 72 339 72 q 554 110 514 72 q 594 194 594 149 q 547 281 594 258 q 400 314 499 303 q 217 373 288 326 q 146 513 146 419 q 216 650 146 594 q 406 706 286 706 q 594 652 525 706 q 671 496 663 599 l 572 496 q 522 583 569 550 q 403 617 474 617 q 287 590 328 617 q 246 514 246 563 q 290 441 246 471 q 432 401 335 411 q 563 376 504 394 q 658 315 622 357 q 694 199 694 274 q 661 88 696 138 q 566 11 626 39 q 425 -17 506 -17 z "},"ș":{"ha":833,"x_min":122,"x_max":696,"o":"m 425 -17 q 214 44 296 -17 q 122 214 132 106 l 224 214 q 285 113 232 153 q 428 72 339 72 q 554 110 514 72 q 594 194 594 149 q 547 281 594 258 q 400 314 499 303 q 217 373 288 326 q 146 513 146 419 q 216 650 146 594 q 406 706 286 706 q 594 652 525 706 q 671 496 663 599 l 572 496 q 522 583 569 550 q 403 617 474 617 q 287 590 328 617 q 246 514 246 563 q 290 441 246 471 q 432 401 335 411 q 563 376 504 394 q 658 315 622 357 q 694 199 694 274 q 661 88 696 138 q 566 11 626 39 q 425 -17 506 -17 m 279 -356 l 360 -94 l 488 -94 l 369 -356 l 279 -356 z "},"ß":{"ha":833,"x_min":100,"x_max":790,"o":"m 540 -17 q 355 49 422 -17 q 281 232 288 114 l 385 232 q 429 116 390 160 q 540 72 468 72 q 651 110 611 72 q 690 208 690 147 q 659 306 690 271 q 557 363 628 340 q 436 426 483 386 q 389 538 389 467 q 405 599 389 574 q 444 642 421 624 q 492 678 468 660 q 531 718 515 696 q 547 772 547 740 q 502 874 547 836 q 379 911 457 911 q 242 855 286 911 q 197 700 197 799 l 197 0 l 100 0 l 100 711 q 131 860 100 794 q 224 963 161 925 q 381 1000 286 1000 q 577 936 510 1000 q 644 779 644 872 q 628 702 644 732 q 590 652 613 672 q 543 616 567 632 q 503 583 519 600 q 488 539 488 565 q 513 483 488 504 q 615 436 539 461 q 746 356 701 408 q 790 215 790 304 q 760 99 790 151 q 675 15 731 46 q 540 -17 619 -17 z "},"t":{"ha":833,"x_min":121,"x_max":671,"o":"m 488 0 q 347 44 397 0 q 296 201 296 88 l 296 606 l 121 606 l 121 689 l 225 689 q 307 758 297 689 l 324 863 l 393 863 l 393 689 l 671 689 l 671 606 l 393 606 l 393 201 q 422 114 393 139 q 521 89 450 89 l 671 89 l 671 0 l 488 0 z "},"ť":{"ha":833,"x_min":121,"x_max":704,"o":"m 488 0 q 347 44 397 0 q 296 201 296 88 l 296 606 l 121 606 l 121 689 l 225 689 q 307 758 297 689 l 324 863 l 393 863 l 393 689 l 671 689 l 671 606 l 393 606 l 393 201 q 422 114 393 139 q 521 89 450 89 l 671 89 l 671 0 l 488 0 m 514 828 l 583 1139 l 704 1139 l 601 828 l 514 828 z "},"ţ":{"ha":833,"x_min":121,"x_max":671,"o":"m 488 0 q 347 44 397 0 q 296 201 296 88 l 296 606 l 121 606 l 121 689 l 225 689 q 307 758 297 689 l 324 863 l 393 863 l 393 689 l 671 689 l 671 606 l 393 606 l 393 201 q 422 114 393 139 q 521 89 450 89 l 671 89 l 671 0 l 488 0 z "},"ț":{"ha":833,"x_min":121,"x_max":671,"o":"m 488 0 q 347 44 397 0 q 296 201 296 88 l 296 606 l 121 606 l 121 689 l 225 689 q 307 758 297 689 l 324 863 l 393 863 l 393 689 l 671 689 l 671 606 l 393 606 l 393 201 q 422 114 393 139 q 521 89 450 89 l 671 89 l 671 0 l 488 0 m 313 -356 l 393 -94 l 521 -94 l 403 -356 l 313 -356 z "},"u":{"ha":833,"x_min":125,"x_max":703,"o":"m 376 -17 q 188 58 250 -17 q 125 268 125 132 l 125 689 l 222 689 l 222 279 q 265 129 222 183 q 397 75 308 75 q 544 134 483 75 q 606 304 606 193 l 606 689 l 703 689 l 703 0 l 624 0 l 611 104 l 606 104 q 517 19 578 56 q 376 -17 457 -17 z "},"ú":{"ha":833,"x_min":125,"x_max":703,"o":"m 376 -17 q 188 58 250 -17 q 125 268 125 132 l 125 689 l 222 689 l 222 279 q 265 129 222 183 q 397 75 308 75 q 544 134 483 75 q 606 304 606 193 l 606 689 l 703 689 l 703 0 l 624 0 l 611 104 l 606 104 q 517 19 578 56 q 376 -17 457 -17 z "},"ŭ":{"ha":833,"x_min":125,"x_max":703,"o":"m 376 -17 q 188 58 250 -17 q 125 268 125 132 l 125 689 l 222 689 l 222 279 q 265 129 222 183 q 397 75 308 75 q 544 134 483 75 q 606 304 606 193 l 606 689 l 703 689 l 703 0 l 624 0 l 611 104 l 606 104 q 517 19 578 56 q 376 -17 457 -17 z "},"û":{"ha":833,"x_min":125,"x_max":703,"o":"m 376 -17 q 188 58 250 -17 q 125 268 125 132 l 125 689 l 222 689 l 222 279 q 265 129 222 183 q 397 75 308 75 q 544 134 483 75 q 606 304 606 193 l 606 689 l 703 689 l 703 0 l 624 0 l 611 104 l 606 104 q 517 19 578 56 q 376 -17 457 -17 z "},"ü":{"ha":833,"x_min":125,"x_max":703,"o":"m 376 -17 q 188 58 250 -17 q 125 268 125 132 l 125 689 l 222 689 l 222 279 q 265 129 222 183 q 397 75 308 75 q 544 134 483 75 q 606 304 606 193 l 606 689 l 703 689 l 703 0 l 624 0 l 611 104 l 606 104 q 517 19 578 56 q 376 -17 457 -17 z "},"ù":{"ha":833,"x_min":125,"x_max":703,"o":"m 376 -17 q 188 58 250 -17 q 125 268 125 132 l 125 689 l 222 689 l 222 279 q 265 129 222 183 q 397 75 308 75 q 544 134 483 75 q 606 304 606 193 l 606 689 l 703 689 l 703 0 l 624 0 l 611 104 l 606 104 q 517 19 578 56 q 376 -17 457 -17 z "},"ű":{"ha":833,"x_min":125,"x_max":703,"o":"m 376 -17 q 188 58 250 -17 q 125 268 125 132 l 125 689 l 222 689 l 222 279 q 265 129 222 183 q 397 75 308 75 q 544 134 483 75 q 606 304 606 193 l 606 689 l 703 689 l 703 0 l 624 0 l 611 104 l 606 104 q 517 19 578 56 q 376 -17 457 -17 z "},"ū":{"ha":833,"x_min":125,"x_max":703,"o":"m 376 -17 q 188 58 250 -17 q 125 268 125 132 l 125 689 l 222 689 l 222 279 q 265 129 222 183 q 397 75 308 75 q 544 134 483 75 q 606 304 606 193 l 606 689 l 703 689 l 703 0 l 624 0 l 611 104 l 606 104 q 517 19 578 56 q 376 -17 457 -17 z "},"ų":{"ha":833,"x_min":125,"x_max":707,"o":"m 376 -17 q 188 58 250 -17 q 125 268 125 132 l 125 689 l 222 689 l 222 279 q 265 129 222 183 q 397 75 308 75 q 544 134 483 75 q 606 304 606 193 l 606 689 l 703 689 l 703 0 l 624 0 l 611 104 l 606 104 q 517 19 578 56 q 376 -17 457 -17 z "},"ů":{"ha":833,"x_min":125,"x_max":703,"o":"m 376 -17 q 188 58 250 -17 q 125 268 125 132 l 125 689 l 222 689 l 222 279 q 265 129 222 183 q 397 75 308 75 q 544 134 483 75 q 606 304 606 193 l 606 689 l 703 689 l 703 0 l 624 0 l 611 104 l 606 104 q 517 19 578 56 q 376 -17 457 -17 z "},"ũ":{"ha":833,"x_min":125,"x_max":703,"o":"m 376 -17 q 188 58 250 -17 q 125 268 125 132 l 125 689 l 222 689 l 222 279 q 265 129 222 183 q 397 75 308 75 q 544 134 483 75 q 606 304 606 193 l 606 689 l 703 689 l 703 0 l 624 0 l 611 104 l 606 104 q 517 19 578 56 q 376 -17 457 -17 z "},"v":{"ha":833,"x_min":56,"x_max":778,"o":"m 361 0 l 56 689 l 169 689 l 417 111 l 665 689 l 778 689 l 471 0 l 361 0 z "},"w":{"ha":833,"x_min":24,"x_max":810,"o":"m 179 0 l 24 689 l 122 689 l 231 154 l 361 689 l 472 689 l 603 154 l 711 689 l 810 689 l 654 0 l 556 0 l 417 558 l 278 0 l 179 0 z "},"ẃ":{"ha":833,"x_min":24,"x_max":810,"o":"m 179 0 l 24 689 l 122 689 l 231 154 l 361 689 l 472 689 l 603 154 l 711 689 l 810 689 l 654 0 l 556 0 l 417 558 l 278 0 l 179 0 z "},"ŵ":{"ha":833,"x_min":24,"x_max":810,"o":"m 179 0 l 24 689 l 122 689 l 231 154 l 361 689 l 472 689 l 603 154 l 711 689 l 810 689 l 654 0 l 556 0 l 417 558 l 278 0 l 179 0 z "},"ẅ":{"ha":833,"x_min":24,"x_max":810,"o":"m 179 0 l 24 689 l 122 689 l 231 154 l 361 689 l 472 689 l 603 154 l 711 689 l 810 689 l 654 0 l 556 0 l 417 558 l 278 0 l 179 0 z "},"ẁ":{"ha":833,"x_min":24,"x_max":810,"o":"m 179 0 l 24 689 l 122 689 l 231 154 l 361 689 l 472 689 l 603 154 l 711 689 l 810 689 l 654 0 l 556 0 l 417 558 l 278 0 l 179 0 z "},"x":{"ha":833,"x_min":108,"x_max":725,"o":"m 113 0 l 347 344 l 108 689 l 217 689 l 417 397 l 617 689 l 725 689 l 486 344 l 721 0 l 614 0 l 417 293 l 219 0 l 113 0 z "},"y":{"ha":833,"x_min":69,"x_max":768,"o":"m 211 -306 l 385 74 l 346 74 l 69 689 l 175 689 l 414 136 l 668 689 l 768 689 l 313 -306 l 211 -306 z "},"ý":{"ha":833,"x_min":69,"x_max":768,"o":"m 211 -306 l 385 74 l 346 74 l 69 689 l 175 689 l 414 136 l 668 689 l 768 689 l 313 -306 l 211 -306 z "},"ŷ":{"ha":833,"x_min":69,"x_max":768,"o":"m 211 -306 l 385 74 l 346 74 l 69 689 l 175 689 l 414 136 l 668 689 l 768 689 l 313 -306 l 211 -306 z "},"ÿ":{"ha":833,"x_min":69,"x_max":768,"o":"m 211 -306 l 385 74 l 346 74 l 69 689 l 175 689 l 414 136 l 668 689 l 768 689 l 313 -306 l 211 -306 z "},"ỳ":{"ha":833,"x_min":69,"x_max":768,"o":"m 211 -306 l 385 74 l 346 74 l 69 689 l 175 689 l 414 136 l 668 689 l 768 689 l 313 -306 l 211 -306 z "},"ỹ":{"ha":833,"x_min":69,"x_max":768,"o":"m 211 -306 l 385 74 l 346 74 l 69 689 l 175 689 l 414 136 l 668 689 l 768 689 l 313 -306 l 211 -306 z "},"z":{"ha":833,"x_min":149,"x_max":685,"o":"m 149 0 l 149 92 l 569 597 l 156 597 l 156 689 l 678 689 l 678 597 l 257 92 l 685 92 l 685 0 l 149 0 z "},"ź":{"ha":833,"x_min":149,"x_max":685,"o":"m 149 0 l 149 92 l 569 597 l 156 597 l 156 689 l 678 689 l 678 597 l 257 92 l 685 92 l 685 0 l 149 0 z "},"ž":{"ha":833,"x_min":149,"x_max":685,"o":"m 149 0 l 149 92 l 569 597 l 156 597 l 156 689 l 678 689 l 678 597 l 257 92 l 685 92 l 685 0 l 149 0 z "},"ż":{"ha":833,"x_min":149,"x_max":685,"o":"m 149 0 l 149 92 l 569 597 l 156 597 l 156 689 l 678 689 l 678 597 l 257 92 l 685 92 l 685 0 l 149 0 z "},"ª":{"ha":833,"x_min":176,"x_max":647,"o":"m 371 403 q 224 453 272 403 q 176 572 176 504 q 239 701 176 657 q 403 744 301 744 l 556 744 l 556 756 q 421 901 556 901 q 332 878 368 901 q 285 804 296 854 l 190 804 q 268 936 201 892 q 421 981 335 981 q 594 919 540 981 q 647 756 647 857 l 647 417 l 568 417 l 560 503 l 553 503 q 488 433 529 463 q 371 403 446 403 m 386 483 q 478 510 440 483 q 536 579 517 536 q 556 671 556 622 l 556 672 l 410 672 q 303 646 335 672 q 272 576 272 619 q 302 508 272 533 q 386 483 332 483 z "},"º":{"ha":833,"x_min":150,"x_max":682,"o":"m 417 403 q 278 439 339 403 q 184 540 218 475 q 150 692 150 604 q 184 845 150 781 q 278 945 218 910 q 417 981 339 981 q 554 945 494 981 q 648 845 614 910 q 682 692 682 781 q 648 540 682 604 q 554 439 614 475 q 417 403 494 403 m 417 490 q 538 540 486 490 q 589 692 589 589 q 538 844 589 794 q 417 893 488 893 q 294 844 346 893 q 243 692 243 794 q 294 540 243 590 q 417 490 346 490 z "},"π":{"ha":833,"x_min":44,"x_max":789,"o":"m 183 0 l 183 606 l 44 606 l 44 689 l 789 689 l 789 606 l 650 606 l 650 0 l 553 0 l 553 606 l 281 606 l 281 0 l 183 0 z "},"¹":{"ha":833,"x_min":222,"x_max":607,"o":"m 222 389 l 222 461 l 369 461 l 369 878 l 229 851 l 229 915 l 399 972 l 450 972 l 450 461 l 607 461 l 607 389 l 222 389 z "},"²":{"ha":833,"x_min":231,"x_max":621,"o":"m 231 389 l 231 453 q 384 581 318 522 q 486 694 450 639 q 522 804 522 749 q 495 881 522 853 q 422 910 468 910 q 339 876 368 910 q 310 796 310 842 l 232 796 q 288 934 233 886 q 422 982 342 982 q 557 935 508 982 q 606 807 606 888 q 567 678 606 739 q 471 562 529 617 q 351 460 413 507 l 621 460 l 621 389 l 231 389 z "},"³":{"ha":833,"x_min":215,"x_max":624,"o":"m 422 379 q 277 428 336 379 q 215 565 218 476 l 296 565 q 332 485 299 518 q 422 453 365 453 q 511 482 479 453 q 543 561 543 511 q 503 639 543 614 q 408 664 464 664 l 357 664 l 357 736 l 401 736 q 518 825 518 736 q 493 885 518 861 q 422 908 468 908 q 348 883 378 908 q 315 817 318 858 l 235 817 q 292 938 239 894 q 422 982 344 982 q 554 938 508 982 q 600 832 600 894 q 574 757 600 789 q 511 711 547 725 l 511 706 q 592 656 561 692 q 624 558 624 619 q 570 432 624 485 q 422 379 517 379 z "},"⁴":{"ha":833,"x_min":207,"x_max":644,"o":"m 485 389 l 485 518 l 207 518 l 207 582 l 469 972 l 565 972 l 565 592 l 644 592 l 644 518 l 565 518 l 565 389 l 485 389 m 297 592 l 489 592 l 489 881 l 297 592 z "},"⁄":{"ha":833,"x_min":149,"x_max":685,"o":"m 149 453 l 149 525 l 685 525 l 685 453 l 149 453 z "},"½":{"ha":833,"x_min":149,"x_max":685,"o":"m 279 579 l 279 653 l 376 653 l 376 874 l 283 860 l 283 931 l 414 971 l 461 971 l 461 653 l 568 653 l 568 579 l 279 579 m 149 453 l 149 525 l 685 525 l 685 453 l 149 453 m 272 0 l 272 67 q 414 176 358 128 q 469 271 469 224 q 456 308 469 294 q 418 322 442 322 q 369 306 385 322 q 354 265 354 289 l 274 265 q 321 366 279 335 q 418 397 363 397 q 519 365 483 397 q 556 278 556 332 q 530 197 556 235 q 466 126 504 158 q 392 69 428 94 l 567 69 l 567 0 l 272 0 z "},"¼":{"ha":833,"x_min":149,"x_max":685,"o":"m 279 579 l 279 653 l 376 653 l 376 874 l 283 860 l 283 931 l 414 971 l 461 971 l 461 653 l 568 653 l 568 579 l 279 579 m 149 453 l 149 525 l 685 525 l 685 453 l 149 453 m 425 -1 l 425 71 l 231 71 l 231 139 l 410 390 l 510 390 l 510 146 l 556 146 l 556 71 l 510 71 l 510 -1 l 425 -1 m 322 146 l 431 146 l 431 300 l 322 146 z "},"¾":{"ha":833,"x_min":149,"x_max":685,"o":"m 417 574 q 310 607 354 574 q 263 704 265 640 l 344 704 q 368 663 347 676 q 418 650 389 650 q 468 663 450 650 q 486 697 486 675 q 463 737 486 725 q 407 749 440 749 l 368 749 l 368 819 l 400 819 q 448 828 428 819 q 468 861 468 836 q 415 901 468 901 q 372 889 389 901 q 354 857 356 876 l 272 857 q 315 946 275 914 q 415 978 354 978 q 518 948 485 978 q 551 871 551 918 q 533 824 551 843 q 492 794 515 804 l 492 792 q 546 760 524 783 q 568 693 568 736 q 528 610 568 646 q 417 574 489 574 m 149 453 l 149 525 l 685 525 l 685 453 l 149 453 m 425 0 l 425 71 l 231 71 l 231 139 l 410 390 l 510 390 l 510 146 l 556 146 l 556 71 l 510 71 l 510 0 l 425 0 m 322 146 l 431 146 l 431 300 l 322 146 z "},".":{"ha":833,"x_min":325,"x_max":508,"o":"m 417 0 q 352 27 379 0 q 325 92 325 54 q 352 156 325 129 q 417 183 379 183 q 481 156 454 183 q 508 92 508 129 q 481 27 508 54 q 417 0 454 0 z "},",":{"ha":833,"x_min":246,"x_max":489,"o":"m 246 -167 l 361 197 l 489 197 l 336 -167 l 246 -167 z "},":":{"ha":833,"x_min":325,"x_max":508,"o":"m 417 0 q 352 27 379 0 q 325 92 325 54 q 352 156 325 129 q 417 183 379 183 q 481 156 454 183 q 508 92 508 129 q 481 27 508 54 q 417 0 454 0 m 417 556 q 352 583 379 556 q 325 647 325 610 q 352 712 325 685 q 417 739 379 739 q 481 712 454 739 q 508 647 508 685 q 481 583 508 610 q 417 556 454 556 z "},";":{"ha":833,"x_min":246,"x_max":508,"o":"m 417 556 q 352 583 379 556 q 325 647 325 610 q 352 712 325 685 q 417 739 379 739 q 481 712 454 739 q 508 647 508 685 q 481 583 508 610 q 417 556 454 556 m 246 -167 l 361 197 l 489 197 l 336 -167 l 246 -167 z "},"…":{"ha":833,"x_min":47,"x_max":786,"o":"m 139 0 q 74 27 101 0 q 47 92 47 54 q 74 156 47 129 q 139 183 101 183 q 203 156 176 183 q 231 92 231 129 q 203 27 231 54 q 139 0 176 0 m 417 0 q 352 27 379 0 q 325 92 325 54 q 352 156 325 129 q 417 183 379 183 q 481 156 454 183 q 508 92 508 129 q 481 27 508 54 q 417 0 454 0 m 694 0 q 630 27 657 0 q 603 92 603 54 q 630 156 603 129 q 694 183 657 183 q 759 156 732 183 q 786 92 786 129 q 759 27 786 54 q 694 0 732 0 z "},"!":{"ha":833,"x_min":325,"x_max":508,"o":"m 369 340 l 358 972 l 475 972 l 463 340 l 369 340 m 417 0 q 352 27 379 0 q 325 92 325 54 q 352 156 325 129 q 417 183 379 183 q 481 156 454 183 q 508 92 508 129 q 481 27 508 54 q 417 0 454 0 z "},"¡":{"ha":833,"x_min":325,"x_max":508,"o":"m 417 522 q 352 549 379 522 q 325 614 325 576 q 352 678 325 651 q 417 706 379 706 q 481 678 454 706 q 508 614 508 651 q 481 549 508 576 q 417 522 454 522 m 358 -306 l 371 365 l 464 365 l 475 -306 l 358 -306 z "},"?":{"ha":833,"x_min":103,"x_max":699,"o":"m 314 286 l 308 485 l 344 485 q 533 534 461 485 q 604 706 604 583 q 550 849 604 799 q 401 900 496 900 q 257 850 311 900 q 196 714 203 800 l 103 714 q 144 858 106 796 q 249 954 183 919 q 401 989 315 989 q 556 955 489 989 q 661 858 624 921 q 699 706 699 794 q 656 541 699 603 q 544 450 613 479 q 401 415 476 421 l 397 286 l 314 286 m 354 0 q 290 27 317 0 q 263 92 263 54 q 290 156 263 129 q 354 183 317 183 q 419 156 392 183 q 446 92 446 129 q 419 27 446 54 q 354 0 392 0 z "},"¿":{"ha":833,"x_min":103,"x_max":699,"o":"m 447 522 q 383 549 410 522 q 356 614 356 576 q 383 678 356 651 q 447 706 410 706 q 512 678 485 706 q 539 614 539 651 q 512 549 539 576 q 447 522 485 522 m 400 -322 q 246 -288 313 -322 q 141 -190 179 -254 q 103 -39 103 -126 q 146 126 103 65 q 258 217 189 188 q 400 251 326 246 l 404 419 l 488 419 l 493 182 l 457 182 q 269 133 340 182 q 197 -39 197 83 q 252 -183 197 -132 q 400 -233 307 -233 q 545 -183 490 -233 q 606 -47 600 -132 l 699 -47 q 657 -190 696 -128 q 552 -287 618 -253 q 400 -322 486 -322 z "},"·":{"ha":833,"x_min":325,"x_max":508,"o":"m 417 394 q 352 422 379 394 q 325 486 325 449 q 352 551 325 524 q 417 578 379 578 q 481 551 454 578 q 508 486 508 524 q 481 422 508 449 q 417 394 454 394 z "},"•":{"ha":833,"x_min":257,"x_max":576,"o":"m 417 326 q 303 373 350 326 q 257 486 257 419 q 303 599 257 553 q 417 646 350 646 q 530 599 483 646 q 576 486 576 553 q 530 373 576 419 q 417 326 483 326 z "},"*":{"ha":833,"x_min":92,"x_max":742,"o":"m 364 140 l 388 438 l 142 275 l 92 364 l 357 486 l 92 608 l 142 697 l 388 535 l 364 832 l 469 832 l 446 535 l 692 697 l 742 608 l 476 486 l 742 364 l 692 275 l 446 438 l 469 140 l 364 140 z "},"#":{"ha":833,"x_min":28,"x_max":806,"o":"m 135 0 l 179 283 l 28 283 l 28 369 l 193 369 l 229 603 l 83 603 l 83 689 l 243 689 l 288 972 l 381 972 l 336 689 l 561 689 l 606 972 l 699 972 l 654 689 l 806 689 l 806 603 l 640 603 l 604 369 l 750 369 l 750 283 l 590 283 l 546 0 l 453 0 l 497 283 l 272 283 l 228 0 l 135 0 m 286 369 l 511 369 l 547 603 l 322 603 l 286 369 z "},"/":{"ha":833,"x_min":125,"x_max":708,"o":"m 125 -125 l 606 1056 l 708 1056 l 226 -125 l 125 -125 z "},"\\":{"ha":833,"x_min":125,"x_max":708,"o":"m 607 -125 l 125 1056 l 228 1056 l 708 -125 l 607 -125 z "},"(":{"ha":833,"x_min":219,"x_max":601,"o":"m 494 -257 q 360 -79 424 -178 q 258 147 297 19 q 219 435 219 274 q 258 723 219 596 q 360 949 297 850 q 494 1126 424 1049 l 601 1126 l 601 1117 q 396 818 475 985 q 317 435 317 651 q 396 51 317 218 q 601 -247 475 -115 l 601 -257 l 494 -257 z "},")":{"ha":833,"x_min":232,"x_max":614,"o":"m 232 -257 l 232 -247 q 438 51 358 -115 q 517 435 517 218 q 438 818 517 651 q 232 1117 358 985 l 232 1126 l 339 1126 q 474 949 411 1049 q 575 723 536 850 q 614 435 614 596 q 575 147 614 274 q 474 -79 536 19 q 339 -257 411 -178 l 232 -257 z "},"{":{"ha":833,"x_min":164,"x_max":672,"o":"m 544 -257 q 389 -210 446 -257 q 332 -56 332 -164 q 340 40 332 -3 q 355 133 347 82 q 363 260 363 185 q 331 356 363 321 q 231 392 300 392 l 164 392 l 164 478 l 231 478 q 331 513 300 478 q 363 610 363 549 q 355 737 363 686 q 340 831 347 788 q 332 925 332 874 q 389 1080 332 1033 q 544 1126 446 1126 l 672 1126 l 672 1040 l 550 1040 q 458 1013 490 1040 q 426 918 426 985 q 434 814 426 857 q 449 728 442 771 q 457 624 457 686 q 426 504 457 551 q 343 438 394 457 l 343 432 q 426 367 394 414 q 457 246 457 319 q 449 142 457 185 q 434 56 442 99 q 426 -49 426 14 q 458 -143 426 -115 q 550 -171 490 -171 l 672 -171 l 672 -257 l 544 -257 z "},"}":{"ha":833,"x_min":161,"x_max":669,"o":"m 161 -257 l 161 -171 l 283 -171 q 375 -143 343 -171 q 407 -49 407 -115 q 399 56 407 14 q 384 142 392 99 q 376 246 376 185 q 408 367 376 319 q 490 432 439 414 l 490 438 q 408 504 439 457 q 376 624 376 551 q 384 728 376 686 q 399 814 392 771 q 407 918 407 857 q 375 1013 407 985 q 283 1040 343 1040 l 161 1040 l 161 1126 l 289 1126 q 444 1080 388 1126 q 501 925 501 1033 q 494 831 501 874 q 478 737 486 788 q 471 610 471 686 q 503 513 471 549 q 603 478 535 478 l 669 478 l 669 392 l 603 392 q 503 356 535 392 q 471 260 471 321 q 478 133 471 185 q 494 40 486 82 q 501 -56 501 -3 q 444 -210 501 -164 q 289 -257 388 -257 l 161 -257 z "},"[":{"ha":833,"x_min":244,"x_max":583,"o":"m 361 -257 q 275 -226 306 -257 q 244 -140 244 -196 l 244 1010 q 275 1097 244 1067 q 361 1126 306 1126 l 583 1126 l 583 1040 l 364 1040 q 336 1013 336 1040 l 336 -142 q 364 -169 336 -169 l 583 -169 l 583 -257 l 361 -257 z "},"]":{"ha":833,"x_min":250,"x_max":589,"o":"m 250 -257 l 250 -169 l 469 -169 q 497 -142 497 -169 l 497 1013 q 469 1040 497 1040 l 250 1040 l 250 1126 l 472 1126 q 559 1097 529 1126 q 589 1010 589 1067 l 589 -140 q 559 -226 589 -196 q 472 -257 529 -257 l 250 -257 z "},"-":{"ha":833,"x_min":194,"x_max":639,"o":"m 194 444 l 194 528 l 639 528 l 639 444 l 194 444 z "},"­":{"ha":833,"x_min":194,"x_max":639,"o":"m 194 444 l 194 528 l 639 528 l 639 444 l 194 444 z "},"–":{"ha":833,"x_min":139,"x_max":694,"o":"m 139 444 l 139 528 l 694 528 l 694 444 l 139 444 z "},"—":{"ha":833,"x_min":0,"x_max":833,"o":"m 0 444 l 0 528 l 833 528 l 833 444 l 0 444 z "},"_":{"ha":833,"x_min":111,"x_max":722,"o":"m 111 -90 l 111 0 l 722 0 l 722 -90 l 111 -90 z "},"‚":{"ha":833,"x_min":318,"x_max":536,"o":"m 318 -178 l 415 197 l 536 197 l 406 -178 l 318 -178 z "},"„":{"ha":833,"x_min":179,"x_max":689,"o":"m 179 -178 l 276 197 l 397 197 l 267 -178 l 179 -178 m 471 -178 l 568 197 l 689 197 l 558 -178 l 471 -178 z "},"“":{"ha":833,"x_min":144,"x_max":654,"o":"m 144 597 l 275 972 l 363 972 l 265 597 l 144 597 m 436 597 l 567 972 l 654 972 l 557 597 l 436 597 z "},"”":{"ha":833,"x_min":179,"x_max":689,"o":"m 179 597 l 276 972 l 397 972 l 267 597 l 179 597 m 471 597 l 568 972 l 689 972 l 558 597 l 471 597 z "},"‘":{"ha":833,"x_min":297,"x_max":515,"o":"m 297 597 l 428 972 l 515 972 l 418 597 l 297 597 z "},"’":{"ha":833,"x_min":318,"x_max":536,"o":"m 318 597 l 415 972 l 536 972 l 406 597 l 318 597 z "},"«":{"ha":833,"x_min":161,"x_max":661,"o":"m 557 139 l 397 410 l 557 681 l 661 681 l 508 413 l 508 407 l 661 139 l 557 139 m 321 139 l 161 410 l 321 681 l 425 681 l 272 413 l 272 407 l 425 139 l 321 139 z "},"»":{"ha":833,"x_min":172,"x_max":672,"o":"m 408 139 l 561 407 l 561 413 l 408 681 l 513 681 l 672 410 l 513 139 l 408 139 m 172 139 l 325 407 l 325 413 l 172 681 l 276 681 l 436 410 l 276 139 l 172 139 z "},"‹":{"ha":833,"x_min":283,"x_max":547,"o":"m 443 139 l 283 410 l 443 681 l 547 681 l 394 413 l 394 407 l 547 139 l 443 139 z "},"›":{"ha":833,"x_min":286,"x_max":550,"o":"m 286 139 l 439 407 l 439 413 l 286 681 l 390 681 l 550 410 l 390 139 l 286 139 z "},"\"":{"ha":833,"x_min":218,"x_max":615,"o":"m 218 553 l 218 972 l 324 972 l 324 553 l 218 553 m 510 553 l 510 972 l 615 972 l 615 553 l 510 553 z "},"'":{"ha":833,"x_min":364,"x_max":469,"o":"m 364 553 l 364 972 l 469 972 l 469 553 l 364 553 z "}," ":{"ha":833,"x_min":0,"x_max":0,"o":""}," ":{"ha":833,"x_min":0,"x_max":0,"o":""},"\r":{"ha":833,"x_min":0,"x_max":0,"o":""},"¢":{"ha":833,"x_min":115,"x_max":728,"o":"m 383 0 l 383 129 q 247 185 307 140 q 151 306 186 231 q 115 486 115 382 q 151 666 115 590 q 247 787 186 742 q 383 843 308 832 l 383 972 l 478 972 l 478 844 q 647 774 585 835 q 728 619 708 714 l 631 619 q 576 708 615 672 q 478 753 536 743 l 478 218 q 578 264 540 228 q 631 353 617 300 l 728 353 q 641 197 706 256 q 478 128 576 138 l 478 0 l 383 0 m 215 486 q 265 304 215 369 q 383 221 314 239 l 383 750 q 265 668 314 733 q 215 486 215 603 z "},"¤":{"ha":833,"x_min":135,"x_max":699,"o":"m 190 132 l 136 186 l 219 269 q 179 413 179 331 q 219 554 179 493 l 135 639 l 190 694 l 274 611 q 417 656 336 656 q 558 610 497 656 l 643 693 l 697 639 l 613 554 q 654 413 654 492 q 643 337 654 372 q 613 272 632 301 l 699 186 l 643 131 l 558 215 q 417 169 496 169 q 272 214 333 169 l 190 132 m 417 250 q 488 268 453 250 q 547 322 524 286 q 571 413 571 358 q 548 503 571 467 q 490 557 525 539 q 417 575 454 575 q 310 535 357 575 q 263 413 263 494 q 310 291 263 332 q 417 250 357 250 z "},"$":{"ha":833,"x_min":71,"x_max":754,"o":"m 365 -121 l 365 -12 q 150 86 229 3 q 71 293 71 169 l 172 293 q 221 154 172 215 q 365 78 269 93 l 365 472 q 160 579 219 511 q 101 746 101 647 q 169 906 101 838 q 365 986 238 974 l 365 1099 l 463 1099 l 463 988 q 659 902 586 975 q 732 725 732 829 l 632 725 q 590 831 632 779 q 463 896 549 883 l 463 543 l 467 542 q 681 442 607 507 q 754 261 754 376 q 717 125 754 185 q 615 28 681 65 q 463 -15 549 -8 l 463 -121 l 365 -121 m 201 744 q 235 648 201 689 q 365 572 269 607 l 365 897 q 247 847 293 886 q 201 744 201 808 m 654 256 q 612 372 654 328 q 463 447 569 415 l 463 74 q 605 136 556 83 q 654 256 654 189 z "},"€":{"ha":833,"x_min":3,"x_max":767,"o":"m 3 332 l 3 418 l 106 418 q 103 486 103 451 q 106 554 103 521 l 3 554 l 3 640 l 115 640 q 233 896 144 803 q 458 989 322 989 q 669 916 588 989 q 767 722 751 843 l 667 722 q 597 850 653 803 q 458 897 542 897 q 301 830 364 897 q 217 640 239 763 l 493 640 l 493 554 l 206 554 q 203 486 203 521 q 206 418 203 451 l 493 418 l 493 332 l 217 332 q 303 142 240 210 q 458 75 367 75 q 597 124 544 75 q 668 247 650 172 l 767 247 q 663 54 740 125 q 458 -17 586 -17 q 231 76 319 -17 q 115 332 143 169 l 3 332 z "},"ƒ":{"ha":833,"x_min":42,"x_max":786,"o":"m 42 -306 l 42 -214 l 117 -214 q 198 -192 171 -214 q 235 -114 225 -169 l 363 606 l 201 606 l 201 689 l 378 689 l 399 808 q 469 955 417 910 q 629 1000 521 1000 l 786 1000 l 786 908 l 614 908 q 533 886 560 908 q 496 808 506 864 l 475 689 l 732 689 l 732 606 l 460 606 l 332 -114 q 265 -260 314 -215 q 101 -306 217 -306 l 42 -306 z "},"₽":{"ha":833,"x_min":51,"x_max":782,"o":"m 182 0 l 182 178 l 51 178 l 51 261 l 182 261 l 182 972 l 467 972 q 649 931 579 972 q 750 824 718 890 q 782 679 782 757 q 750 535 782 603 q 649 427 718 468 q 467 386 579 386 l 279 386 l 279 261 l 561 261 l 561 178 l 279 178 l 279 0 l 182 0 m 279 475 l 467 475 q 628 533 574 475 q 682 679 682 590 q 628 826 682 769 q 467 883 574 883 l 279 883 l 279 475 z "},"£":{"ha":833,"x_min":64,"x_max":740,"o":"m 125 0 l 125 65 q 209 178 176 124 q 242 310 242 233 q 236 368 242 340 q 222 422 231 396 l 64 422 l 64 506 l 192 506 q 159 598 174 550 q 144 707 144 646 q 183 855 144 792 q 288 953 221 918 q 443 989 356 989 q 603 952 539 989 q 702 852 668 915 q 739 708 736 789 l 642 708 q 586 845 636 790 q 443 900 536 900 q 347 880 393 900 q 271 816 300 860 q 242 703 242 772 q 257 601 242 650 q 289 506 272 553 l 561 506 l 561 422 l 319 422 q 331 372 326 397 q 336 321 336 347 q 313 197 336 250 q 250 94 290 143 l 250 89 l 740 89 l 740 0 l 125 0 z "},"¥":{"ha":833,"x_min":56,"x_max":778,"o":"m 118 229 l 118 313 l 368 313 l 368 389 l 343 436 l 118 436 l 118 519 l 299 519 l 56 972 l 165 972 l 417 485 l 668 972 l 778 972 l 535 519 l 715 519 l 715 436 l 490 436 l 465 389 l 465 313 l 715 313 l 715 229 l 465 229 l 465 0 l 368 0 l 368 229 l 118 229 z "},"∕":{"ha":833,"x_min":125,"x_max":708,"o":"m 125 -125 l 606 1056 l 708 1056 l 226 -125 l 125 -125 z "},"+":{"ha":833,"x_min":111,"x_max":722,"o":"m 372 181 l 372 442 l 111 442 l 111 531 l 372 531 l 372 792 l 461 792 l 461 531 l 722 531 l 722 442 l 461 442 l 461 181 l 372 181 z "},"−":{"ha":833,"x_min":111,"x_max":722,"o":"m 111 442 l 111 531 l 722 531 l 722 442 l 111 442 z "},"×":{"ha":833,"x_min":131,"x_max":703,"o":"m 193 200 l 131 263 l 354 486 l 131 710 l 193 772 l 417 549 l 640 772 l 703 710 l 479 486 l 703 263 l 640 200 l 417 424 l 193 200 z "},"÷":{"ha":833,"x_min":111,"x_max":722,"o":"m 111 442 l 111 531 l 722 531 l 722 442 l 111 442 m 417 117 q 352 144 379 117 q 325 208 325 171 q 352 273 325 246 q 417 300 379 300 q 481 273 454 300 q 508 208 508 246 q 481 144 508 171 q 417 117 454 117 m 417 672 q 352 699 379 672 q 325 764 325 726 q 352 828 325 801 q 417 856 379 856 q 481 828 454 856 q 508 764 508 801 q 481 699 508 726 q 417 672 454 672 z "},"=":{"ha":833,"x_min":111,"x_max":722,"o":"m 111 611 l 111 700 l 722 700 l 722 611 l 111 611 m 111 272 l 111 361 l 722 361 l 722 272 l 111 272 z "},"≠":{"ha":833,"x_min":111,"x_max":722,"o":"m 175 71 l 268 272 l 111 272 l 111 361 l 310 361 l 426 611 l 111 611 l 111 700 l 467 700 l 561 903 l 658 903 l 564 700 l 722 700 l 722 611 l 524 611 l 407 361 l 722 361 l 722 272 l 365 272 l 272 71 l 175 71 z "},">":{"ha":833,"x_min":174,"x_max":676,"o":"m 174 114 l 540 482 l 540 490 l 174 856 l 307 856 l 676 486 l 307 114 l 174 114 z "},"<":{"ha":833,"x_min":157,"x_max":660,"o":"m 526 114 l 157 486 l 526 856 l 660 856 l 293 490 l 293 482 l 660 114 l 526 114 z "},"≥":{"ha":833,"x_min":111,"x_max":722,"o":"m 154 181 l 510 440 l 510 449 l 154 706 l 308 706 l 679 444 l 308 181 l 154 181 m 111 0 l 111 89 l 722 89 l 722 0 l 111 0 z "},"≤":{"ha":833,"x_min":111,"x_max":722,"o":"m 525 181 l 154 444 l 525 706 l 679 706 l 324 449 l 324 440 l 679 181 l 525 181 m 111 0 l 111 89 l 722 89 l 722 0 l 111 0 z "},"±":{"ha":833,"x_min":111,"x_max":722,"o":"m 372 250 l 372 442 l 111 442 l 111 531 l 372 531 l 372 722 l 461 722 l 461 531 l 722 531 l 722 442 l 461 442 l 461 250 l 372 250 m 111 0 l 111 89 l 722 89 l 722 0 l 111 0 z "},"≈":{"ha":833,"x_min":124,"x_max":710,"o":"m 538 564 q 465 578 497 564 q 403 610 432 592 q 346 643 374 629 q 289 657 318 657 q 233 631 254 657 q 206 565 211 606 l 124 565 q 296 744 140 744 q 369 731 336 744 q 431 698 401 717 q 488 665 460 679 q 544 651 515 651 q 601 677 579 651 q 628 743 622 703 l 710 743 q 538 564 693 564 m 538 244 q 465 258 497 244 q 403 291 432 272 q 346 324 374 310 q 289 338 318 338 q 233 312 254 338 q 206 246 211 286 l 124 246 q 296 425 140 425 q 369 411 336 425 q 431 378 401 397 q 488 346 460 360 q 544 332 515 332 q 601 358 579 332 q 628 424 622 383 l 710 424 q 538 244 693 244 z "},"~":{"ha":833,"x_min":124,"x_max":710,"o":"m 538 356 q 465 369 497 356 q 403 402 432 383 q 346 435 374 421 q 289 449 318 449 q 233 423 254 449 q 206 357 211 397 l 124 357 q 296 536 140 536 q 369 522 336 536 q 431 490 401 508 q 488 457 460 471 q 544 443 515 443 q 601 469 579 443 q 628 535 622 494 l 710 535 q 538 356 693 356 z "},"¬":{"ha":833,"x_min":111,"x_max":722,"o":"m 633 181 l 633 442 l 111 442 l 111 531 l 722 531 l 722 181 l 633 181 z "},"^":{"ha":833,"x_min":89,"x_max":744,"o":"m 89 529 l 374 972 l 460 972 l 744 529 l 640 529 l 419 879 l 414 879 l 192 529 l 89 529 z "},"∞":{"ha":833,"x_min":17,"x_max":817,"o":"m 217 201 q 74 253 132 201 q 17 400 17 306 q 76 545 17 493 q 217 597 135 597 q 333 559 288 597 q 414 471 379 521 q 497 561 444 525 q 617 597 550 597 q 759 545 701 597 q 817 400 817 493 q 757 254 817 307 q 611 201 697 201 q 498 238 544 201 q 415 324 451 274 q 335 235 386 269 q 217 201 285 201 m 100 400 q 134 313 100 344 q 221 281 168 281 q 308 311 271 281 q 369 390 344 342 q 299 481 335 442 q 215 519 264 519 q 134 488 168 519 q 100 400 100 457 m 613 519 q 526 486 565 518 q 460 403 486 454 q 529 317 493 353 q 618 281 565 281 q 701 313 668 281 q 733 400 733 344 q 701 489 733 457 q 613 519 668 521 z "},"∫":{"ha":833,"x_min":79,"x_max":754,"o":"m 79 -306 l 79 -214 l 168 -214 q 249 -192 222 -214 q 286 -114 276 -169 l 450 808 q 520 955 468 910 q 681 1000 572 1000 l 754 1000 l 754 908 l 665 908 q 584 886 611 908 q 547 808 557 864 l 383 -114 q 317 -260 365 -215 q 153 -306 268 -306 l 79 -306 z "},"Ω":{"ha":833,"x_min":43,"x_max":790,"o":"m 68 0 l 68 83 l 279 83 l 279 125 q 159 231 213 165 q 74 385 106 296 q 43 582 43 474 q 93 794 43 703 q 228 938 143 886 q 417 989 313 989 q 606 938 522 989 q 740 794 690 886 q 790 582 790 703 q 759 385 790 474 q 674 231 728 296 q 554 125 621 165 l 554 83 l 765 83 l 765 0 l 465 0 l 465 167 q 583 261 533 210 q 662 388 633 313 q 690 578 690 464 q 656 745 690 674 q 560 857 622 817 q 417 897 499 897 q 273 857 335 897 q 177 745 211 817 q 143 578 143 674 q 172 388 143 464 q 251 261 200 313 q 368 167 301 210 l 368 0 l 68 0 z "},"∆":{"ha":833,"x_min":64,"x_max":769,"o":"m 64 0 l 64 85 l 363 972 l 472 972 l 769 85 l 769 0 l 64 0 m 168 89 l 665 89 l 419 840 l 414 840 l 168 89 z "},"∏":{"ha":833,"x_min":51,"x_max":782,"o":"m 157 0 l 157 883 l 51 883 l 51 972 l 782 972 l 782 883 l 676 883 l 676 0 l 579 0 l 579 883 l 254 883 l 254 0 l 157 0 z "},"∑":{"ha":833,"x_min":97,"x_max":726,"o":"m 97 -137 l 97 -40 l 440 417 l 111 875 l 111 972 l 704 972 l 704 889 l 219 889 l 536 442 l 536 392 l 203 -54 l 726 -54 l 726 -137 l 97 -137 z "},"√":{"ha":833,"x_min":56,"x_max":811,"o":"m 263 0 l 56 481 l 169 481 l 315 115 l 624 972 l 811 972 l 811 889 l 694 889 l 368 0 l 263 0 z "},"µ":{"ha":833,"x_min":125,"x_max":703,"o":"m 125 -306 l 125 689 l 222 689 l 222 279 q 265 129 222 183 q 397 75 308 75 q 544 134 483 75 q 606 304 606 193 l 606 689 l 703 689 l 703 0 l 624 0 l 611 104 l 606 104 q 518 19 578 56 q 383 -17 458 -17 q 222 51 272 -17 l 222 -306 l 125 -306 z "},"∂":{"ha":833,"x_min":82,"x_max":760,"o":"m 371 -17 q 219 25 283 -17 q 118 140 154 67 q 82 308 82 214 q 107 454 82 383 q 179 582 132 525 q 296 672 226 639 q 453 706 365 706 q 582 673 528 706 q 661 596 636 640 l 667 596 q 590 783 647 699 q 407 922 532 867 l 451 1000 q 676 817 592 947 q 760 485 760 688 q 734 301 760 390 q 659 140 708 211 q 538 26 610 68 q 371 -17 465 -17 m 374 72 q 520 124 456 72 q 623 268 585 176 q 664 475 661 360 q 575 581 626 544 q 449 617 524 617 q 302 574 361 617 q 213 462 243 531 q 182 315 182 393 q 238 137 182 201 q 374 72 293 72 z "},"%":{"ha":833,"x_min":28,"x_max":806,"o":"m 231 558 q 85 617 142 558 q 28 774 28 675 q 85 931 28 872 q 231 989 142 989 q 376 931 319 989 q 433 774 433 872 q 376 617 433 675 q 231 558 319 558 m 231 633 q 315 669 279 633 q 350 774 350 706 q 315 878 350 842 q 231 914 279 914 q 147 878 183 914 q 111 774 111 842 q 147 669 111 706 q 231 633 183 633 m 96 96 l 36 154 l 738 876 l 797 818 l 96 96 m 603 -17 q 457 42 514 -17 q 400 199 400 100 q 457 356 400 297 q 603 414 514 414 q 749 356 692 414 q 806 199 806 297 q 749 42 806 100 q 603 -17 692 -17 m 603 58 q 687 94 651 58 q 722 199 722 131 q 687 303 722 267 q 603 339 651 339 q 519 303 556 339 q 483 199 483 267 q 519 94 483 131 q 603 58 556 58 z "},"‰":{"ha":833,"x_min":19,"x_max":824,"o":"m 231 558 q 85 617 142 558 q 28 774 28 675 q 85 931 28 872 q 231 989 142 989 q 376 931 319 989 q 433 774 433 872 q 376 617 433 675 q 231 558 319 558 m 231 633 q 315 669 279 633 q 350 774 350 706 q 315 878 350 842 q 231 914 279 914 q 147 878 183 914 q 111 774 111 842 q 147 669 111 706 q 231 633 183 633 m 56 318 l 19 393 l 711 732 l 747 657 l 56 318 m 374 -17 q 246 42 296 -17 q 196 199 196 100 q 246 356 196 297 q 374 414 296 414 q 510 346 460 414 q 646 414 560 414 q 774 356 724 414 q 824 199 824 297 q 774 42 824 100 q 646 -17 724 -17 q 510 51 560 -17 q 374 -17 460 -17 m 374 58 q 441 94 414 58 q 468 199 468 131 q 441 303 468 267 q 374 339 414 339 q 306 303 333 339 q 279 199 279 267 q 306 94 279 131 q 374 58 333 58 m 646 58 q 713 94 686 58 q 740 199 740 131 q 713 303 740 267 q 646 339 686 339 q 578 303 606 339 q 551 199 551 267 q 578 94 551 131 q 646 58 606 58 z "},"◊":{"ha":833,"x_min":61,"x_max":772,"o":"m 363 0 l 61 486 l 363 972 l 472 972 l 772 486 l 472 0 l 363 0 m 414 88 l 419 88 l 665 486 l 419 885 l 414 885 l 168 486 l 414 88 z "},"@":{"ha":833,"x_min":72,"x_max":769,"o":"m 518 -131 q 270 -58 369 -131 q 122 140 171 15 q 72 421 72 265 q 105 669 72 565 q 193 841 138 774 q 318 940 249 908 q 463 972 388 972 q 687 900 604 972 q 769 693 769 828 l 769 149 l 699 149 l 688 236 l 682 236 q 621 165 661 194 q 519 136 581 136 q 347 211 414 136 q 279 422 279 286 q 347 632 279 558 q 519 706 414 706 q 622 682 582 706 q 682 621 661 658 l 682 693 q 622 837 682 785 q 463 889 561 889 q 319 844 388 889 q 208 696 251 799 q 164 421 164 593 q 185 242 164 326 q 251 93 207 158 q 363 -10 296 28 q 518 -47 429 -47 l 710 -47 l 710 -131 l 518 -131 m 525 214 q 638 264 593 214 q 682 421 682 314 q 638 578 682 528 q 525 628 593 628 q 413 578 457 628 q 368 421 368 528 q 413 264 368 314 q 525 214 457 214 z "},"&":{"ha":833,"x_min":56,"x_max":815,"o":"m 350 -17 q 197 20 263 -17 q 93 123 131 57 q 56 278 56 189 q 101 439 56 368 q 233 558 147 510 q 176 665 193 615 q 158 767 158 715 q 226 927 158 865 q 403 989 293 989 q 574 929 508 989 q 639 774 639 869 l 542 774 q 499 867 542 835 q 403 900 457 900 q 294 863 333 900 q 256 768 256 826 q 278 678 256 725 q 349 574 301 632 l 586 282 l 685 503 l 789 503 l 649 204 l 815 0 l 699 0 l 601 117 q 499 20 561 57 q 350 -17 438 -17 m 153 281 q 208 132 153 192 q 350 72 263 72 q 458 102 414 72 q 539 190 503 132 l 289 489 q 153 281 153 418 z "},"¶":{"ha":833,"x_min":86,"x_max":719,"o":"m 425 -139 l 425 415 l 414 415 q 229 452 301 415 q 122 551 157 489 q 86 693 86 614 q 122 836 86 774 q 230 935 157 899 q 414 972 303 972 l 719 972 l 719 -139 l 628 -139 l 628 889 l 517 889 l 517 -139 l 425 -139 z "},"§":{"ha":833,"x_min":90,"x_max":743,"o":"m 414 -322 q 256 -287 324 -322 q 151 -192 188 -253 q 114 -56 114 -132 l 214 -56 q 236 -138 214 -97 q 303 -206 258 -179 q 419 -233 349 -233 q 558 -194 503 -233 q 614 -83 614 -154 q 592 1 614 -33 q 516 64 569 35 q 367 125 463 93 q 216 190 278 156 q 122 276 154 225 q 90 401 90 326 q 113 504 90 457 q 175 588 135 551 q 119 751 119 653 q 154 872 119 818 q 256 957 189 925 q 419 989 324 989 q 578 954 511 989 q 683 859 646 919 q 719 722 719 799 l 619 722 q 597 805 619 764 q 530 873 575 846 q 414 900 485 900 q 275 860 331 900 q 219 750 219 821 q 242 665 219 700 q 318 602 264 631 q 467 542 372 574 q 619 475 557 511 q 712 388 681 439 q 743 260 743 338 q 721 161 743 207 q 658 79 699 115 q 714 -85 714 14 q 679 -204 714 -150 q 578 -290 644 -258 q 414 -322 511 -322 m 446 200 q 588 139 531 174 q 643 254 643 188 q 619 343 643 307 q 540 408 596 379 q 388 467 485 438 q 247 528 303 492 q 190 407 190 478 q 214 321 190 356 q 293 258 238 286 q 446 200 349 231 z "},"©":{"ha":833,"x_min":14,"x_max":819,"o":"m 417 83 q 211 136 303 83 q 67 281 119 189 q 14 486 14 372 q 67 692 14 601 q 211 836 119 783 q 417 889 303 889 q 623 836 532 889 q 767 692 714 783 q 819 486 819 601 q 767 281 819 372 q 623 136 714 189 q 417 83 532 83 m 417 146 q 590 190 514 146 q 710 312 665 235 q 754 486 754 389 q 710 661 754 585 q 590 782 665 738 q 417 826 514 826 q 244 782 321 826 q 124 661 168 738 q 79 486 79 585 q 124 312 79 389 q 244 190 168 235 q 417 146 321 146 m 415 236 q 258 301 322 236 q 194 486 194 367 q 225 622 194 567 q 306 707 256 678 q 415 736 356 736 q 553 693 503 736 q 618 578 604 650 l 547 578 q 501 647 533 622 q 415 672 468 672 q 310 627 356 672 q 264 486 264 582 q 310 344 264 390 q 415 299 356 299 q 506 325 472 299 q 551 394 540 351 l 618 394 q 549 278 601 319 q 415 236 497 236 z "},"®":{"ha":833,"x_min":14,"x_max":819,"o":"m 417 83 q 211 136 303 83 q 67 281 119 189 q 14 486 14 372 q 67 692 14 601 q 211 836 119 783 q 417 889 303 889 q 623 836 532 889 q 767 692 714 783 q 819 486 819 601 q 767 281 819 372 q 623 136 714 189 q 417 83 532 83 m 417 146 q 590 190 514 146 q 710 312 665 235 q 754 486 754 389 q 710 661 754 585 q 590 782 665 738 q 417 826 514 826 q 244 782 321 826 q 124 661 168 738 q 79 486 79 585 q 124 312 79 389 q 244 190 168 235 q 417 146 321 146 m 271 243 l 271 729 l 419 729 q 543 690 503 729 q 583 589 583 650 q 560 506 583 542 q 488 457 536 471 l 597 243 l 519 243 l 418 447 l 340 447 l 340 243 l 271 243 m 340 511 l 418 511 q 493 533 469 511 q 517 589 517 556 q 494 644 517 624 q 418 665 471 665 l 340 665 l 340 511 z "},"™":{"ha":833,"x_min":36,"x_max":807,"o":"m 443 486 l 443 972 l 531 972 l 625 750 l 719 972 l 807 972 l 807 486 l 728 486 l 728 814 l 658 644 l 592 644 l 522 814 l 522 486 l 443 486 m 167 486 l 167 897 l 36 897 l 36 972 l 381 972 l 381 897 l 250 897 l 250 486 l 167 486 z "},"°":{"ha":833,"x_min":218,"x_max":615,"o":"m 417 592 q 317 616 363 592 q 245 685 272 640 q 218 789 218 729 q 245 894 218 850 q 317 964 272 939 q 417 989 363 989 q 516 964 471 989 q 588 894 561 939 q 615 789 615 850 q 588 685 615 729 q 516 616 561 640 q 417 592 471 592 m 417 667 q 499 700 464 667 q 535 790 535 733 q 499 881 535 847 q 417 914 464 914 q 334 881 369 914 q 299 790 299 847 q 334 700 299 733 q 417 667 369 667 z "},"|":{"ha":833,"x_min":368,"x_max":465,"o":"m 368 -375 l 368 1000 l 465 1000 l 465 -375 l 368 -375 z "},"¦":{"ha":833,"x_min":368,"x_max":465,"o":"m 368 425 l 368 1000 l 465 1000 l 465 425 l 368 425 m 368 -375 l 368 200 l 465 200 l 465 -375 l 368 -375 z "},"†":{"ha":833,"x_min":168,"x_max":665,"o":"m 368 219 l 368 724 l 168 724 l 168 804 l 368 804 l 368 972 l 465 972 l 465 804 l 665 804 l 665 724 l 465 724 l 465 219 l 368 219 z "},"ℓ":{"ha":833,"x_min":99,"x_max":729,"o":"m 493 0 q 266 76 347 0 q 185 299 185 153 q 185 310 185 306 q 99 292 143 300 l 99 379 q 190 401 146 389 q 231 616 200 511 q 311 806 263 721 q 422 940 360 890 q 556 989 483 989 q 683 947 636 989 q 729 826 729 906 q 611 539 729 667 q 283 339 493 411 q 282 293 282 317 q 338 140 282 188 q 496 89 394 92 l 638 89 l 638 0 l 493 0 m 556 900 q 448 839 503 900 q 351 672 393 778 q 292 435 308 567 q 544 601 456 500 q 632 814 632 703 q 611 878 632 856 q 556 900 590 900 z "},"‡":{"ha":833,"x_min":168,"x_max":665,"o":"m 368 219 l 368 388 l 168 388 l 168 468 l 368 468 l 368 724 l 168 724 l 168 804 l 368 804 l 368 972 l 465 972 l 465 804 l 665 804 l 665 724 l 465 724 l 465 468 l 665 468 l 665 388 l 465 388 l 465 219 l 368 219 z "},"℮":{"ha":833,"x_min":35,"x_max":799,"o":"m 417 74 q 221 121 307 74 q 85 258 135 168 q 35 479 35 349 q 83 685 35 593 q 217 831 131 776 q 418 885 304 885 q 626 832 542 885 q 755 694 711 779 q 799 513 799 608 l 799 461 l 172 461 l 172 253 q 267 166 207 201 q 417 131 328 131 q 594 178 515 131 q 711 311 672 226 l 781 311 q 640 138 733 201 q 417 74 546 74 m 172 529 l 667 529 l 667 706 q 556 797 619 767 q 418 826 493 826 q 278 797 340 826 q 172 706 215 767 l 172 529 z "},"̈":{"ha":0,"x_min":219,"x_max":614,"o":"m 542 785 q 488 807 510 785 q 467 860 467 829 q 488 913 467 890 q 542 935 510 935 q 593 913 572 935 q 614 860 614 890 q 593 807 614 829 q 542 785 572 785 m 294 785 q 241 807 263 785 q 219 860 219 829 q 241 913 219 890 q 294 935 263 935 q 347 913 325 935 q 368 860 368 890 q 347 807 368 829 q 294 785 325 785 z "},"̇":{"ha":0,"x_min":331,"x_max":503,"o":"m 417 822 q 356 848 382 822 q 331 908 331 874 q 356 969 331 944 q 417 994 382 994 q 478 969 453 994 q 503 908 503 944 q 478 848 503 874 q 417 822 453 822 z "},"̀":{"ha":0,"x_min":274,"x_max":560,"o":"m 560 747 l 274 893 l 274 1000 l 560 847 l 560 747 z "},"́":{"ha":0,"x_min":274,"x_max":560,"o":"m 274 747 l 274 847 l 560 1000 l 560 893 l 274 747 z "},"̋":{"ha":0,"x_min":221,"x_max":613,"o":"m 428 771 l 517 972 l 613 972 l 504 771 l 428 771 m 221 771 l 310 972 l 406 972 l 297 771 l 221 771 z "},"̂":{"ha":0,"x_min":231,"x_max":603,"o":"m 231 769 l 231 861 l 417 972 l 603 861 l 603 769 l 419 879 l 414 879 l 231 769 z "},"̌":{"ha":0,"x_min":231,"x_max":603,"o":"m 417 769 l 231 881 l 231 972 l 414 863 l 419 863 l 603 972 l 603 881 l 417 769 z "},"̆":{"ha":0,"x_min":228,"x_max":606,"o":"m 417 772 q 278 823 328 772 q 228 943 228 874 l 228 961 l 300 961 q 331 879 300 908 q 417 850 363 850 q 501 879 471 850 q 532 961 532 908 l 606 961 l 606 943 q 556 823 606 874 q 417 772 507 772 z "},"̊":{"ha":0,"x_min":275,"x_max":558,"o":"m 417 778 q 317 815 358 778 q 275 917 275 853 q 317 1018 275 981 q 417 1056 358 1056 q 517 1018 475 1056 q 558 917 558 981 q 517 815 558 853 q 417 778 475 778 m 417 833 q 474 856 451 833 q 497 917 497 878 q 474 978 497 957 q 417 1000 451 1000 q 360 978 383 1000 q 336 917 336 957 q 360 856 336 878 q 417 833 383 833 z "},"̃":{"ha":0,"x_min":210,"x_max":624,"o":"m 499 808 q 434 823 460 808 q 387 851 408 838 q 336 865 365 865 q 298 852 314 865 q 278 811 282 839 l 210 811 q 247 908 213 875 q 333 940 282 940 q 397 926 372 940 q 444 898 422 913 q 496 883 467 883 q 557 938 549 883 l 624 938 q 588 842 624 876 q 499 808 551 808 z "},"̄":{"ha":0,"x_min":196,"x_max":638,"o":"m 196 833 l 196 914 l 638 914 l 638 833 l 196 833 z "},"̒":{"ha":0,"x_min":313,"x_max":521,"o":"m 313 783 l 431 1044 l 521 1044 l 440 783 l 313 783 z "},"̦":{"ha":0,"x_min":281,"x_max":489,"o":"m 281 -356 l 361 -94 l 489 -94 l 371 -356 l 281 -356 z "},"̧":{"ha":0,"x_min":338,"x_max":639,"o":"m 338 -358 l 338 -293 l 467 -293 q 533 -275 510 -293 q 557 -222 557 -257 q 533 -173 557 -190 q 467 -156 510 -156 l 393 -156 l 393 10 l 461 10 l 461 -93 l 479 -93 q 594 -125 550 -93 q 639 -222 639 -157 q 594 -322 639 -286 q 476 -358 550 -358 l 338 -358 z "},"̨":{"ha":0,"x_min":303,"x_max":535,"o":"m 446 -286 q 347 -254 392 -286 q 303 -150 303 -222 q 341 -47 303 -87 q 440 28 379 -6 l 499 60 l 531 0 l 465 -37 q 407 -84 429 -58 q 385 -146 385 -110 q 407 -197 385 -181 q 463 -212 429 -212 q 496 -208 479 -212 q 535 -193 513 -204 l 535 -268 q 490 -282 513 -278 q 446 -286 468 -286 z "},"´":{"ha":833,"x_min":274,"x_max":560,"o":"m 274 747 l 274 847 l 560 1000 l 560 893 l 274 747 z "},"˘":{"ha":833,"x_min":228,"x_max":606,"o":"m 417 772 q 278 823 328 772 q 228 943 228 874 l 228 961 l 300 961 q 331 879 300 908 q 417 850 363 850 q 501 879 471 850 q 532 961 532 908 l 606 961 l 606 943 q 556 823 606 874 q 417 772 507 772 z "},"ˇ":{"ha":833,"x_min":231,"x_max":603,"o":"m 417 769 l 231 881 l 231 972 l 414 863 l 419 863 l 603 972 l 603 881 l 417 769 z "},"¸":{"ha":833,"x_min":338,"x_max":639,"o":"m 338 -358 l 338 -293 l 467 -293 q 533 -275 510 -293 q 557 -222 557 -257 q 533 -173 557 -190 q 467 -156 510 -156 l 393 -156 l 393 10 l 461 10 l 461 -93 l 479 -93 q 594 -125 550 -93 q 639 -222 639 -157 q 594 -322 639 -286 q 476 -358 550 -358 l 338 -358 z "},"ˆ":{"ha":833,"x_min":231,"x_max":603,"o":"m 231 769 l 231 861 l 417 972 l 603 861 l 603 769 l 419 879 l 414 879 l 231 769 z "},"¨":{"ha":833,"x_min":219,"x_max":614,"o":"m 542 785 q 488 807 510 785 q 467 860 467 829 q 488 913 467 890 q 542 935 510 935 q 593 913 572 935 q 614 860 614 890 q 593 807 614 829 q 542 785 572 785 m 294 785 q 241 807 263 785 q 219 860 219 829 q 241 913 219 890 q 294 935 263 935 q 347 913 325 935 q 368 860 368 890 q 347 807 368 829 q 294 785 325 785 z "},"˙":{"ha":833,"x_min":331,"x_max":503,"o":"m 417 822 q 356 848 382 822 q 331 908 331 874 q 356 969 331 944 q 417 994 382 994 q 478 969 453 994 q 503 908 503 944 q 478 848 503 874 q 417 822 453 822 z "},"`":{"ha":833,"x_min":274,"x_max":560,"o":"m 560 747 l 274 893 l 274 1000 l 560 847 l 560 747 z "},"˝":{"ha":833,"x_min":221,"x_max":613,"o":"m 428 771 l 517 972 l 613 972 l 504 771 l 428 771 m 221 771 l 310 972 l 406 972 l 297 771 l 221 771 z "},"¯":{"ha":833,"x_min":196,"x_max":638,"o":"m 196 833 l 196 914 l 638 914 l 638 833 l 196 833 z "},"˛":{"ha":833,"x_min":303,"x_max":535,"o":"m 446 -286 q 347 -254 392 -286 q 303 -150 303 -222 q 341 -47 303 -87 q 440 28 379 -6 l 499 60 l 531 0 l 465 -37 q 407 -84 429 -58 q 385 -146 385 -110 q 407 -197 385 -181 q 463 -212 429 -212 q 496 -208 479 -212 q 535 -193 513 -204 l 535 -268 q 490 -282 513 -278 q 446 -286 468 -286 z "},"˚":{"ha":833,"x_min":275,"x_max":558,"o":"m 417 778 q 317 815 358 778 q 275 917 275 853 q 317 1018 275 981 q 417 1056 358 1056 q 517 1018 475 1056 q 558 917 558 981 q 517 815 558 853 q 417 778 475 778 m 417 833 q 474 856 451 833 q 497 917 497 878 q 474 978 497 957 q 417 1000 451 1000 q 360 978 383 1000 q 336 917 336 957 q 360 856 336 878 q 417 833 383 833 z "},"˜":{"ha":833,"x_min":210,"x_max":624,"o":"m 499 808 q 434 823 460 808 q 387 851 408 838 q 336 865 365 865 q 298 852 314 865 q 278 811 282 839 l 210 811 q 247 908 213 875 q 333 940 282 940 q 397 926 372 940 q 444 898 422 913 q 496 883 467 883 q 557 938 549 883 l 624 938 q 588 842 624 876 q 499 808 551 808 z "}}}
